<?xml version="1.0" encoding="UTF-8"?>
<svg id="_レイヤー_2" data-name="レイヤー 2" xmlns="http://www.w3.org/2000/svg" viewBox="0 0 263.41 98.87">
  <defs>
    <style>
      .cls-1 {
        fill: #350f14;
      }
    </style>
  </defs>
  <g id="_レイヤー_1-2" data-name="レイヤー 1">
    <g>
      <path class="cls-1" d="m142.17,29.53c7.9-20.2,32.04-27.08,51.81-24.79,11.6,1.34,22.68,5.35,32.73,11.23,4.94,2.89,9.61,6.24,14.01,9.9,4.4,3.66,8.71,7.36,12.06,11.81,1.73,2.3,3.24,4.79,4.4,7.43.9,2.06,2.03,4.59,1.99,6.89-.06,3.53-5.59,1.28-7.47.66-3.46-1.14-6.74-2.77-9.81-4.72-1.73-1.1-4.01,1.49-2.67,3.05,2.87,3.35,6.15,8.9,2.32,12.82-3.84,3.92-10.25.29-14.03-2.1-1.51-.96-3.64.96-2.91,2.57,1.41,3.13-2,5.48-4.73,5.99-3.9.73-8.01-.63-11.7-1.72-2.59-.76-3.37,3.36-.8,4.12,5.17,1.53,11.26,3.23,16.4.68,3.82-1.9,6.69-6.21,4.78-10.46l-2.91,2.57c5.6,3.54,13.65,6.87,19.05,1.11,5.09-5.43,2.23-13-1.99-17.93l-2.67,3.05c2.89,1.83,5.94,3.36,9.17,4.5,2.7.96,5.74,2.09,8.66,1.9,2.68-.17,4.99-2,5.46-4.71.39-2.23-.41-4.84-1.11-6.93-3.92-11.73-14-20.44-23.63-27.6-20.45-15.22-48.54-24.28-73.49-15.26-11.53,4.17-22.11,12.44-26.66,24.1-.98,2.5,2.77,4.38,3.76,1.86h0Z"/>
      <g>
        <path class="cls-1" d="m99.14,64.81c-.62.88-1.57,1.29-2.91,1.31-1.03.02-1.99-.29-2.94-.91-1.04-.62-1.53-1.4-1.54-2.27,0-.47-.01-.87.14-1.35.07-.48.22-.87.38-1.35.15-.48.22-1.03.37-1.51.07-.48.14-.95.14-1.51,0-.47-.1-1.5-.12-2.93-.18-1.42-.28-2.77-.3-3.96-2.37.59-4.5,1.1-6.39,1.44-2.05.43-4.03.77-5.93,1.04-1.97.35-3.95.54-5.93.72l-6.33.57c-.36,2.06-.57,4.13-.7,6.19-.13,2.06-.18,4.04-.15,5.79,0,.63-.3,1.27-.92,1.91-.62.64-1.33,1.05-2.04,1.06-.32,0-.79-.07-1.35-.06-.64-.15-1.19-.3-1.67-.45-.56-.23-1.04-.46-1.36-.69-.48-.31-.64-.54-.65-1.02-.01-.87-.03-1.82.12-2.85.14-.95.29-1.99.59-3.1l.59-3.1c.22-.96.52-2.15.82-3.5-.95.01-1.74-.05-2.3-.2-.64-.07-1.19-.22-1.51-.45-.4-.15-.72-.46-.88-.86-.32-.39-.57-.94-.74-1.57.15-.48.3-.88.46-1.19.08-.24.23-.56.46-1.04.15-.24.47-.48.86-.65.31-.16.79-.25,1.42-.26.48,0,.95.06,1.59.21.48.15,1.19.3,2.15.52.37-1.51.98-3.5,1.73-5.97.76-2.39,1.75-4.94,2.82-7.65,1.07-2.63,2.22-5.34,3.6-8.05,1.23-2.71,2.62-5.19,4.17-7.43,1.47-2.16,3.03-3.93,4.67-5.3,1.56-1.37,3.29-2.11,5.04-2.13,1.11-.02,2.06.29,3.02.75.96.54,1.76,1.24,2.49,2.02.65.78,1.29,1.72,1.78,2.67.49.94.9,1.89,1.23,2.83.58,1.81,1.08,3.63,1.59,5.52l1.27,5.68,1.04,5.85.88,5.69.88,5.93c.19,1.98.45,3.8.64,5.38.18,1.66.28,3.08.46,4.35.1,1.27.19,2.14.2,2.77.02,1.19-.28,2.22-.9,3.1Zm-8.63-26.01c-.35-2.21-.7-4.35-1.05-6.32-.25-.95-.51-2.05-.68-3.16-.17-1.11-.43-2.21-.69-3.4l-.92-3.55c-.34-1.26-.75-2.37-1.24-3.39-.16-.24-.32-.39-.48-.55-.32-.15-.48-.23-.56-.23-.48,0-1.1.33-1.89.98-.78.65-1.56,1.53-2.34,2.65-2.79,3.84-5.11,8.08-6.94,12.78-1.91,4.7-3.5,9.56-4.77,14.49,4.12-.06,7.92-.44,11.55-1.04,3.64-.53,7.35-1.3,11.14-2.31-.43-2.37-.78-4.66-1.13-6.95Z"/>
        <path class="cls-1" d="m140.07,58.18l.07,4.83c.02,1.35-.36,2.38-1.06,3.18-.78.8-1.8,1.21-3.15,1.23-1.66.03-2.47-1.23-2.51-3.84,0-.32,0-.63.14-1.11.07-.4.15-.8.14-1.27,0-.55-.02-1.43.04-2.69l-.09-6.26-.2-2.77-.28-3.09c-.18-1.11-.27-2.06-.44-3-.52-2.69-1.26-4.73-2.31-6.22-1.13-1.41-2.41-2.18-3.75-2.16-.95.01-1.9.27-2.76.75-.86.57-1.72,1.29-2.5,2.1-.78.88-1.56,1.85-2.17,2.88-.7,1.12-1.31,2.32-1.77,3.43-.77,1.6-1.22,3.11-1.52,4.54-.29,1.51-.43,2.78-.42,3.73.02,1.43-.04,2.93-.01,4.52-.06,1.58-.03,3.09-.01,4.51.01.79-.05,1.59-.12,2.46-.14.95-.45,1.75-1,2.31l-.94.73c-.39.17-.87.33-1.34.34-1.27.02-2.06-.21-2.46-.6-.48-.47-.73-1.02-.74-1.81,0-.32-.01-.79.06-1.43.07-.55.14-1.27.2-2.22-.01-.87-.03-1.9.03-3.09l-.24-15.76-.23-4.59c-.02-1.11-.11-2.3-.29-3.56-.08-.16-.09-.47-.09-.95-.01-.71.38-1.35,1.24-1.92.79-.49,1.57-.74,2.52-.75,1.19-.02,1.99.29,2.47.75.41.55.65,1.34.67,2.45v.95c.02.32-.06.63-.05.95,0,.48-.06.95-.05,1.58-.07.71-.13,1.59-.12,2.69,1.22-2.87,2.85-5.11,5.05-6.73,2.11-1.62,4.4-2.52,6.77-2.56.87-.01,1.82.13,2.86.35.96.3,1.75.69,2.55,1.07,1.12.62,2.08,1.4,3.04,2.17.89.94,1.61,1.96,2.26,3.13.65,1.18,1.15,2.52,1.57,4.1.34,1.66.61,3.56.8,5.69.01,1.03.11,2.06.12,3.01l.05,3.09c.02,1.58-.03,3.17,0,4.83Z"/>
        <path class="cls-1" d="m178.9,37.63c-.29,1.75-.35,3.33-.32,4.92l.04,2.38c-.06,1.43-.11,3.09-.08,5.07l-.06,6.34-.06,6.5c-.05,2.06-.1,3.72-.08,5.23l.04,2.77c.06,4.28-1.08,7.62-3.42,10.03-2.34,2.41-5.89,3.65-10.48,3.72-.79.01-1.66-.05-2.77-.12-1.11-.06-2.3-.12-3.41-.27-1.19-.14-2.3-.36-3.42-.58-1.11-.3-2.07-.52-2.86-.83-.8-.3-1.52-.77-2.16-1.23-.72-.54-1.05-1.17-1.06-1.97-.01-.95.13-1.74.6-2.23.39-.56.94-.81,1.65-.82.48,0,1.03.06,1.51.22.48.15.96.3,1.51.61,1.28.61,2.71,1.15,4.3,1.68,1.59.45,3.1.75,4.61.72,3.17-.05,5.53-1.03,7.25-2.88,1.56-1.84,2.39-4.39,2.34-7.64l-.11-7.37c-1.63,2.24-3.43,3.77-5.32,4.59-1.97.82-4.1,1.33-6.32,1.36s-4.12-.33-5.72-1.02c-1.59-.69-2.96-1.7-3.93-2.95-1.13-1.17-1.86-2.59-2.36-4.24-.5-1.58-.76-3.24-.79-4.98-.05-3.17.22-6.18.97-9.12.75-2.86,1.74-5.41,3.05-7.65,1.31-2.24,2.87-4,4.67-5.38,1.8-1.29,3.77-2.04,5.83-2.07,1.66-.02,3.33.19,5.08.56,1.59.45,3.19,1.54,4.8,3.18.45-1.59.91-2.71,1.54-3.19.16-.08.39-.16.63-.25l.55-.17,1.35-.02c.55,0,1.19.22,1.91.61.72.46,1.12,1.01,1.21,1.49-.29,1.59-.5,3.26-.72,5Zm-8.77,1.4c-1.38-1.88-3.21-2.88-5.51-2.85-1.27.02-2.45.43-3.55,1.24-1.26.81-2.27,2.01-3.2,3.53-.93,1.6-1.69,3.59-2.21,5.9-.6,2.31-.8,4.92-.75,7.93.02,1.19.11,2.3.45,3.32.25,1.1.66,1.97,1.31,2.75.49.78,1.21,1.41,2.09,1.87.88.46,1.91.68,3.18.67,1.5-.02,2.92-.52,4.25-1.49,1.25-.97,2.34-2.25,3.27-3.85.93-1.52,1.62-3.27,2.14-5.26.45-1.99.73-4.05.7-6.11-.05-3.17-.8-5.69-2.17-7.65Z"/>
        <path class="cls-1" d="m218.71,61.67c-1.1.89-2.51,1.62-4.08,2.28-1.57.66-3.31,1.24-5.21,1.58-1.98.35-3.79.53-5.54.56-2.93.04-5.39-.4-7.46-1.16-2.15-.84-3.91-2-5.28-3.41-1.37-1.41-2.42-2.97-3.08-4.87-.66-1.81-1.01-3.71-1.04-5.61-.04-2.54.32-5.15,1.15-7.7.83-2.55,1.99-4.86,3.38-6.94,1.32-2,2.88-3.69,4.6-4.98,1.72-1.29,3.46-1.95,5.28-1.98,1.82-.03,3.8.18,5.95.54,2.07.44,3.98,1.05,5.57,1.82,2,1.08,3.68,2.32,5.05,3.81,1.29,1.56,1.95,3.46,1.98,5.52.02,1.5-.43,2.94-1.36,4.22-.93,1.36-2.1,2.56-3.59,3.54-1.57,1.05-3.3,1.87-5.35,2.54-2.05.66-4.18.93-6.4.97-1.58.02-3.25-.19-5-.64-1.75-.45-3.26-.98-4.54-1.75.03,1.66.21,3.24.71,4.82.42,1.58,1.15,2.83,2.2,3.85.97,1.09,2.25,1.87,3.68,2.4,1.36.61,2.94.91,4.69.88.95-.01,1.98-.11,3-.44.95-.25,1.97-.58,2.92-1.07.94-.41,1.81-.9,2.67-1.39.79-.49,1.49-.97,2.2-1.46.63-.41,1.34-.65,2.13-.67.63,0,1.19.22,1.67.69.4.47.65.86.65,1.18.02,1.11-.52,2.07-1.54,2.88Zm-5.42-23.45c-.65-.86-1.45-1.56-2.41-2.18-.96-.54-2.15-1-3.51-1.29-1.35-.3-2.54-.44-3.57-.42-1.11.02-2.13.35-3.08.84-1.02.57-1.88,1.3-2.66,2.18-.86.88-1.55,1.92-2.17,3.04-.62,1.2-1.07,2.39-1.37,3.67.5,1.34,1.46,2.36,3.05,2.97,1.52.77,3.42,1.06,5.64,1.02,1.27-.02,2.53-.2,3.87-.53,1.26-.34,2.52-.75,3.62-1.32,1.02-.57,1.88-1.3,2.58-2.1.62-.8,1-1.68.99-2.63-.02-1.19-.35-2.29-1-3.23Z"/>
      </g>
      <g>
        <path class="cls-1" d="m15.63,85.19c-.31,1.11-.8,2.08-1.42,2.99-.66.9-1.49,1.67-2.47,2.22-1.04.56-2.26.83-3.65.83-.73,0-1.53-.14-2.36-.42-.87-.24-1.74-.66-2.61-1.25v1.67c0,.56.03,1.04.03,1.53s0,.9.03,1.28v.83l.07.45c0,.14,0,.28.03.42l.1.56c0,.14.03.28.1.49,0,.49-.14.97-.38,1.42-.24.42-.66.66-1.22.66-.28,0-.49-.1-.62-.24-.17-.17-.35-.35-.49-.52-.17-.24-.28-.49-.31-.69-.07-.28-.1-.49-.1-.62v-3.3c0-.73,0-1.46.03-2.22v-2.08l.07-4.13c0-1.32.03-2.71.03-4.1,0-.52-.03-1.04-.07-1.53-.07-.49-.1-1.01-.17-1.56l-.07-.38-.1-.42c-.07-.21-.1-.49-.1-.76,0-.38.17-.66.56-.83.35-.14.76-.21,1.32-.21.21,0,.42.07.63.21l.52.52.17.28c0,.07.03.17.07.28,0,.21.03.45.07.73v1.25c.97-1.04,1.95-1.77,2.99-2.26.97-.45,1.98-.69,2.95-.69,1.04,0,2.02.17,2.85.49.83.35,1.53.8,2.12,1.35s1.04,1.22,1.39,1.98c.28.76.45,1.6.45,2.5,0,1.11-.17,2.19-.45,3.3Zm-2.85-4.93c-.07-.49-.21-.9-.42-1.32-.21-.42-.49-.76-.83-1.04-.38-.24-.83-.38-1.39-.38-.66,0-1.32.17-2.02.45-.73.35-1.39.73-2.02,1.18-.62.49-1.15,1.01-1.6,1.56-.49.56-.76,1.11-.9,1.6-.14.35-.21.69-.21,1.08-.03.42-.03.97-.03,1.63v1.15c0,.49.17.94.52,1.32.31.42.73.76,1.25,1.04.49.28,1.01.49,1.6.63.56.17,1.08.24,1.56.24.69,0,1.35-.17,1.91-.59.56-.35,1.04-.9,1.46-1.6.38-.69.69-1.53.9-2.5.21-.94.31-1.98.31-3.16,0-.38-.03-.8-.1-1.28Z"/>
        <path class="cls-1" d="m32.49,91.65c-.24.28-.63.45-1.11.45-.63,0-1.04-.17-1.29-.45-.17-.17-.28-.38-.31-.63-.07-.21-.07-.66-.07-1.28-.97.59-1.98.97-2.99,1.15-1.01.17-1.91.24-2.68.24-.97,0-1.84-.07-2.61-.24-.83-.17-1.53-.42-2.12-.76-.63-.35-1.08-.76-1.42-1.25-.35-.45-.49-.97-.49-1.6,0-.66.21-1.25.63-1.81.42-.49.97-.94,1.67-1.32.66-.38,1.42-.69,2.33-.97.87-.28,1.77-.49,2.71-.69.9-.14,1.84-.28,2.75-.38.87-.07,1.67-.14,2.4-.21-.07-.49-.17-.97-.38-1.46s-.45-.9-.8-1.28c-.35-.38-.76-.69-1.25-.97-.49-.21-1.04-.35-1.67-.35-.49,0-.94.07-1.35.21-.45.14-.87.28-1.22.49-.38.21-.73.42-1.01.63-.31.21-.56.42-.76.59-.21.21-.35.38-.49.52l-.52.52c-.35.28-.73.42-1.11.42s-.69-.14-.94-.42c-.28-.28-.38-.59-.38-.94,0-.49.24-1.01.8-1.53.52-.49,1.15-.9,1.91-1.32.42-.21.87-.42,1.35-.59.49-.14,1.01-.28,1.49-.42.49-.1.94-.17,1.39-.24.42-.07.8-.1,1.11-.1,1.04,0,1.98.21,2.81.59.8.42,1.49.97,2.08,1.6.56.69.97,1.42,1.29,2.26.28.83.45,1.67.45,2.5s0,1.67.07,2.47c0,.83.03,1.67.03,2.5,0,.49,0,.94.04,1.35v1.32c0,.69-.14,1.15-.35,1.42Zm-5.35-7.68c-1.11.1-2.15.28-3.13.52s-1.81.56-2.5.97c-.69.45-1.04,1.01-1.04,1.67,0,.35.1.66.38.94.24.28.56.52.94.73.35.21.76.38,1.18.49s.83.14,1.22.14c1.01,0,2.05-.21,3.09-.63,1.04-.42,1.88-1.01,2.5-1.77l.1-3.23c-.76.03-1.7.1-2.74.17Z"/>
        <path class="cls-1" d="m46.15,90.05c-.28.35-.59.59-.9.76-.42.21-.87.38-1.35.49-.52.1-.94.17-1.29.17-.9,0-1.6-.17-2.12-.52-.56-.35-1.01-.76-1.32-1.32-.31-.56-.52-1.18-.63-1.88-.14-.66-.17-1.32-.17-2.01,0-.94,0-1.91.03-2.88,0-.97,0-2.01.03-3.16l-1.56.14c-.49.07-.9.1-1.25.1-.49,0-.83-.21-1.08-.62-.28-.42-.38-.83-.38-1.32,0-.24.07-.42.28-.52.21-.07.45-.14.8-.14.17,0,.42,0,.73-.03.31,0,.63-.03.97-.03l.9-.07c.28,0,.52-.04.66-.04,0-.17,0-.52.03-1.08,0-.49,0-1.04.03-1.6,0-.56.03-1.11.03-1.6s.03-.8.03-.94c0-.1,0-.21.07-.31.03-.1.07-.17.1-.21.1-.1.28-.21.56-.28.21-.07.45-.1.73-.1.14,0,.38.07.66.14.24.1.49.21.73.31.21.14.42.28.59.42.17.17.28.31.28.45,0,.21-.03.42-.07.59l-.1.63c-.07.24-.1.52-.1.87l-.14,1.04-.14.97c-.03.31-.07.52-.07.66h2.71l.7.07c.17.07.31.07.42.07.17.07.35.1.56.17.14.07.24.21.24.42,0,.28-.17.52-.52.66-.35.17-.69.31-1.11.42-.49.14-1.04.24-1.67.31l-.76.07c-.28.03-.52.07-.69.07-.07,1.25-.14,2.43-.17,3.51-.07,1.11-.07,2.22-.07,3.3,0,1.32.17,2.26.59,2.81.38.56.87.83,1.49.83.42,0,.76-.1,1.04-.35,0,0,.03-.07.1-.14.07-.07.1-.17.17-.28.07-.17.17-.35.31-.49s.35-.21.66-.21c.24,0,.45.07.59.21.14.17.24.35.24.52,0,.35-.14.66-.42.94Z"/>
        <path class="cls-1" d="m49.9,72.2c-.35-.07-.62-.21-.83-.42-.28-.21-.49-.42-.63-.69-.14-.24-.21-.52-.21-.83,0-.52.17-.94.56-1.25.38-.31.83-.49,1.39-.49.69,0,1.29.21,1.81.56.49.42.73.94.73,1.6,0,.56-.17.97-.52,1.25-.35.31-.8.45-1.35.45-.35,0-.66-.03-.94-.17Zm1.74,6.81c-.07.35-.14.73-.14,1.11v.97c-.04.42-.04.9-.04,1.39s-.03,1.01-.03,1.53v3.44c0,.28,0,.56.07.87.03.35.1.69.24,1.01,0,.21-.03.38-.1.59-.07.24-.17.45-.28.63-.14.21-.31.35-.49.49-.21.14-.42.17-.63.17s-.38-.03-.59-.17c-.21-.14-.42-.28-.59-.49-.17-.21-.31-.42-.42-.69-.1-.21-.14-.45-.14-.66v-2.99c0-.69.03-1.46.03-2.26s0-1.56.04-2.29v-3.99c0-.38.07-.73.21-1.01.07-.17.21-.31.35-.38.14-.07.42-.1.76-.1.17,0,.38.03.63.1.21.07.42.17.63.31.17.14.35.24.49.38.14.14.21.28.21.42v.31c-.03.07-.07.17-.07.28l-.14,1.04Z"/>
        <path class="cls-1" d="m68.84,89.46c-.38.49-.9.9-1.53,1.22-.62.35-1.39.56-2.22.76-.9.14-1.84.24-2.81.24-.49,0-1.04-.07-1.67-.17-.66-.1-1.32-.24-1.95-.42-.66-.21-1.29-.45-1.84-.76-.56-.28-1.01-.62-1.32-1.04-.1-.1-.21-.28-.28-.49-.1-.21-.14-.35-.14-.49,0-.21.07-.45.28-.69.21-.21.52-.35.94-.35.52,0,.97.1,1.32.28.35.21.66.52,1.01.94.07.14.28.24.56.38.24.17.56.31.9.42.35.14.69.28,1.11.35.42.07.8.1,1.22.1,1.39,0,2.36-.17,2.92-.52s.83-.69.83-1.08c0-.56-.59-1.18-1.77-1.84-.42-.21-.83-.42-1.32-.62-.49-.17-.94-.38-1.39-.59-.35-.14-.66-.31-.97-.45-.35-.14-.66-.28-.97-.49-.45-.21-.87-.45-1.29-.73-.42-.24-.8-.52-1.08-.87-.35-.31-.59-.69-.76-1.11-.21-.38-.31-.83-.31-1.39,0-.49.1-.97.31-1.53.17-.56.52-1.04,1.01-1.53.49-.42,1.15-.8,1.98-1.11.83-.28,1.88-.45,3.2-.45.35,0,.76.03,1.18.1.42.1.83.21,1.25.35.38.14.76.28,1.15.42.35.17.69.35.97.49.49.35.9.66,1.29.97.35.35.52.73.52,1.11,0,.28-.14.56-.38.76-.24.28-.56.38-.94.38-.42,0-.8-.14-1.18-.45-.42-.28-.76-.59-1.11-.94-.28-.21-.66-.45-1.15-.73-.56-.21-1.15-.35-1.77-.35-.52,0-.97.07-1.36.21-.42.14-.76.28-1.04.49-.28.21-.49.45-.62.69-.14.24-.21.49-.21.69,0,.63.21,1.11.62,1.53.42.42,1.18.87,2.22,1.35l2.5,1.18c.9.45,1.7.87,2.4,1.25.63.35,1.18.76,1.6,1.22.42.49.62,1.04.62,1.67s-.17,1.15-.52,1.63Z"/>
        <path class="cls-1" d="m84.44,89.46c-.38.49-.9.9-1.53,1.22-.63.35-1.39.56-2.22.76-.9.14-1.84.24-2.81.24-.49,0-1.04-.07-1.67-.17-.66-.1-1.32-.24-1.95-.42-.66-.21-1.29-.45-1.84-.76-.56-.28-1.01-.62-1.32-1.04-.1-.1-.21-.28-.28-.49-.1-.21-.14-.35-.14-.49,0-.21.07-.45.28-.69.21-.21.52-.35.94-.35.52,0,.97.1,1.32.28.35.21.66.52,1.01.94.07.14.28.24.56.38.24.17.56.31.9.42.35.14.7.28,1.11.35.42.07.8.1,1.22.1,1.39,0,2.36-.17,2.92-.52.56-.35.83-.69.83-1.08,0-.56-.59-1.18-1.77-1.84-.42-.21-.83-.42-1.32-.62-.49-.17-.94-.38-1.39-.59-.35-.14-.66-.31-.97-.45-.35-.14-.66-.28-.97-.49-.45-.21-.87-.45-1.29-.73-.42-.24-.8-.52-1.08-.87-.35-.31-.59-.69-.76-1.11-.21-.38-.31-.83-.31-1.39,0-.49.1-.97.31-1.53.17-.56.52-1.04,1.01-1.53.49-.42,1.15-.8,1.98-1.11.83-.28,1.88-.45,3.2-.45.35,0,.76.03,1.18.1.42.1.83.21,1.25.35.38.14.76.28,1.15.42l.97.49c.49.35.9.66,1.29.97.35.35.52.73.52,1.11,0,.28-.14.56-.38.76-.24.28-.56.38-.94.38-.42,0-.8-.14-1.18-.45-.42-.28-.76-.59-1.11-.94-.28-.21-.66-.45-1.15-.73-.56-.21-1.15-.35-1.77-.35-.52,0-.97.07-1.36.21-.42.14-.76.28-1.04.49-.28.21-.49.45-.63.69-.14.24-.21.49-.21.69,0,.63.21,1.11.62,1.53.42.42,1.18.87,2.22,1.35l2.5,1.18c.9.45,1.7.87,2.4,1.25.62.35,1.18.76,1.6,1.22.42.49.63,1.04.63,1.67s-.17,1.15-.52,1.63Z"/>
        <path class="cls-1" d="m100.12,89.67c-.49.38-1.11.69-1.81.97-.69.28-1.46.52-2.29.66-.87.14-1.67.21-2.43.21-1.29,0-2.36-.21-3.27-.56-.94-.38-1.7-.9-2.29-1.53-.59-.63-1.04-1.32-1.32-2.15-.28-.8-.42-1.63-.42-2.47,0-1.11.17-2.26.56-3.37.38-1.11.9-2.12,1.53-3.02.59-.87,1.29-1.6,2.05-2.15s1.53-.83,2.33-.83,1.67.1,2.61.28c.9.21,1.74.49,2.43.83.87.49,1.6,1.04,2.19,1.7.56.69.83,1.53.83,2.43,0,.66-.21,1.29-.63,1.84-.42.59-.94,1.11-1.6,1.53-.7.45-1.46.8-2.36,1.08-.9.28-1.84.38-2.81.38-.7,0-1.42-.1-2.19-.31-.76-.21-1.42-.45-1.98-.8,0,.73.07,1.42.28,2.12.17.69.49,1.25.94,1.7.42.49.97.83,1.6,1.08.59.28,1.29.42,2.05.42.42,0,.87-.03,1.32-.17.42-.1.87-.24,1.29-.45.42-.17.8-.38,1.18-.59.35-.21.66-.42.97-.62.28-.17.59-.28.94-.28.28,0,.52.1.73.31.17.21.28.38.28.52,0,.49-.24.9-.7,1.25Zm-2.22-10.31c-.28-.38-.62-.69-1.04-.97-.42-.24-.94-.45-1.53-.59-.59-.14-1.11-.21-1.56-.21-.49,0-.94.14-1.35.35-.45.24-.83.56-1.18.94-.38.38-.69.83-.97,1.32-.28.52-.49,1.04-.62,1.6.21.59.62,1.04,1.32,1.32.66.35,1.49.49,2.47.49.56,0,1.11-.07,1.7-.21.56-.14,1.11-.31,1.6-.56.45-.24.83-.56,1.15-.9.28-.35.45-.73.45-1.15,0-.52-.14-1.01-.42-1.42Z"/>
        <path class="cls-1" d="m115.2,77.45c-.28.28-.52.42-.76.42-.07,0-.17,0-.35-.03-.21,0-.35,0-.42-.03-.24-.07-.42-.14-.52-.14-.42,0-.83.1-1.22.31-.42.21-.83.42-1.18.69-.35.28-.66.59-.94.9-.28.35-.52.62-.66.87-.28.49-.59.94-.9,1.42-.35.52-.63,1.01-.87,1.46-.28.49-.49.9-.66,1.32-.17.45-.24.83-.24,1.11,0,.76.07,1.53.24,2.29.14.8.21,1.49.21,2.12,0,.42-.17.73-.45,1.01-.31.24-.69.38-1.18.38-.7,0-1.18-.24-1.46-.69-.21-.31-.35-.69-.38-1.11-.07-.42-.14-.83-.14-1.25l-.07-2.64c-.07-.87-.07-1.74-.07-2.64v-1.98l.07-1.94c0-.56.03-1.08.07-1.49,0-.42.03-.66.07-.76.1-.31.31-.59.62-.83.28-.21.59-.35.97-.35s.73.14,1.04.38c.28.28.45.62.45,1.08,0,.49-.03,1.04-.03,1.63-.07.62-.1,1.35-.17,2.15.42-.9.94-1.74,1.53-2.5.56-.73,1.15-1.35,1.77-1.88.59-.49,1.18-.83,1.81-1.11.59-.28,1.15-.42,1.7-.42.21,0,.49.04.8.1.28.07.52.17.8.31.24.14.45.28.62.42.14.21.24.42.24.63,0,.28-.14.52-.35.8Z"/>
        <path class="cls-1" d="m118.88,72.2c-.35-.07-.62-.21-.83-.42-.28-.21-.49-.42-.62-.69-.14-.24-.21-.52-.21-.83,0-.52.17-.94.56-1.25.38-.31.83-.49,1.39-.49.69,0,1.29.21,1.81.56.49.42.73.94.73,1.6,0,.56-.17.97-.52,1.25-.35.31-.8.45-1.35.45-.35,0-.66-.03-.94-.17Zm1.74,6.81c-.07.35-.14.73-.14,1.11v.97c-.04.42-.04.9-.04,1.39s-.03,1.01-.03,1.53v3.44c0,.28,0,.56.07.87.03.35.1.69.24,1.01,0,.21-.04.38-.1.59-.07.24-.17.45-.28.63-.14.21-.31.35-.49.49-.21.14-.42.17-.62.17s-.38-.03-.59-.17c-.21-.14-.42-.28-.59-.49-.17-.21-.31-.42-.42-.69-.1-.21-.14-.45-.14-.66v-2.99c0-.69.04-1.46.04-2.26s0-1.56.03-2.29v-3.99c0-.38.07-.73.21-1.01.07-.17.21-.31.35-.38.14-.07.42-.1.76-.1.17,0,.38.03.63.1.21.07.42.17.62.31.17.14.35.24.49.38.14.14.21.28.21.42v.31c-.04.07-.07.17-.07.28l-.14,1.04Z"/>
        <path class="cls-1" d="m137.89,89.67c-.49.38-1.11.69-1.81.97-.69.28-1.46.52-2.29.66-.87.14-1.67.21-2.43.21-1.29,0-2.36-.21-3.27-.56-.94-.38-1.7-.9-2.29-1.53-.59-.63-1.04-1.32-1.32-2.15-.28-.8-.42-1.63-.42-2.47,0-1.11.17-2.26.56-3.37.38-1.11.9-2.12,1.53-3.02.59-.87,1.29-1.6,2.05-2.15s1.53-.83,2.33-.83,1.67.1,2.61.28c.9.21,1.74.49,2.43.83.87.49,1.6,1.04,2.19,1.7.56.69.83,1.53.83,2.43,0,.66-.21,1.29-.63,1.84-.42.59-.94,1.11-1.6,1.53-.7.45-1.46.8-2.36,1.08s-1.84.38-2.81.38c-.7,0-1.42-.1-2.19-.31-.76-.21-1.42-.45-1.98-.8,0,.73.07,1.42.28,2.12.17.69.49,1.25.94,1.7.42.49.97.83,1.6,1.08.59.28,1.29.42,2.05.42.42,0,.87-.03,1.32-.17.42-.1.87-.24,1.29-.45.42-.17.8-.38,1.18-.59.35-.21.66-.42.97-.62.28-.17.59-.28.94-.28.28,0,.52.1.73.31.17.21.28.38.28.52,0,.49-.24.9-.7,1.25Zm-2.22-10.31c-.28-.38-.62-.69-1.04-.97-.42-.24-.94-.45-1.53-.59-.59-.14-1.11-.21-1.56-.21-.49,0-.94.14-1.35.35-.45.24-.83.56-1.18.94-.38.38-.69.83-.97,1.32-.28.52-.49,1.04-.62,1.6.21.59.62,1.04,1.32,1.32.66.35,1.49.49,2.47.49.56,0,1.11-.07,1.7-.21.56-.14,1.11-.31,1.6-.56.45-.24.83-.56,1.15-.9.28-.35.45-.73.45-1.15,0-.52-.14-1.01-.42-1.42Z"/>
      </g>
    </g>
  </g>
</svg>