<?xml version="1.0" encoding="UTF-8"?>
<svg id="_レイヤー_2" data-name="レイヤー 2" xmlns="http://www.w3.org/2000/svg" viewBox="0 0 463.46 273.9">
  <defs>
    <style>
      .cls-1 {
        fill: #b38769;
      }

      .cls-1, .cls-2, .cls-3, .cls-4, .cls-5, .cls-6, .cls-7, .cls-8, .cls-9, .cls-10 {
        stroke-width: 0px;
      }

      .cls-2 {
        fill: #693e21;
      }

      .cls-3 {
        fill: #231815;
      }

      .cls-4 {
        fill: #da7c8b;
      }

      .cls-5 {
        fill: #e0e0e2;
      }

      .cls-6 {
        fill: #a13224;
      }

      .cls-7 {
        fill: #aeadb8;
      }

      .cls-8 {
        fill: #1a1a1d;
      }

      .cls-9 {
        fill: #454750;
      }

      .cls-10 {
        fill: #d1c2b9;
      }
    </style>
  </defs>
  <g id="_レイヤー_2-2" data-name="レイヤー 2">
    <g>
      <g>
        <ellipse class="cls-1" cx="251.16" cy="158.55" rx="165.66" ry="56.23"/>
        <g>
          <path class="cls-2" d="m100.88,256.89c-17.43,0-26.81-12.95-26.81-26.6s10.01-27.72,27.09-27.72c11.13,0,18.69,6.44,18.69,10.22,0,2.38-2.03,4.34-4.27,4.34-1.26,0-2.52-.56-3.57-1.89-2.73-3.36-7.14-4.97-11.55-4.97-11.83,0-18.13,10.08-18.13,19.53,0,5.88,3.43,19.04,18.2,19.04,5.32,0,10.57-2.03,13.44-5.88.98-1.33,2.17-1.82,3.43-1.82,2.38,0,4.69,2.1,4.69,4.48,0,3.64-8.33,11.27-21.21,11.27Z"/>
          <path class="cls-2" d="m153.45,254.93c-.63-.49-1.26-1.26-1.89-2.31-.07-.14-.21-.21-.28-.21-.14,0-.28.07-.42.21-2.38,2.73-6.79,4.2-10.92,4.2-7.7,0-12.25-5.6-12.25-10.99,0-3.57,2.1-7.14,6.79-8.75,4.83-1.68,10.85-3.01,11.97-3.08.7-.07,1.26-.91,1.26-2.38,0-.84-.21-4.41-4.97-4.41-3.15,0-5.53,1.47-6.86,2.94-.77.91-1.75,1.26-2.59,1.26-1.82,0-3.36-1.4-3.36-3.22,0-3.36,6.16-7.07,13.23-7.07,7.7,0,11.9,3.78,11.9,11.83,0,.91-.07,1.75-.14,2.73-.14,1.05-.35,3.71-.35,5.81,0,.63,0,1.19.07,1.61.63,5.6,3.22,5.81,3.78,6.23.77.56,1.12,1.47,1.12,2.45,0,1.96-1.54,4.2-3.57,4.2-.77,0-1.68-.35-2.52-1.05Zm-6.44-15.05c-11.83,1.47-12.53,4.41-12.53,6.09,0,2.17,1.89,4.34,5.46,4.34,5.67,0,8.12-2.87,8.12-7.84,0-1.05-.14-2.59-.98-2.59h-.07Z"/>
          <path class="cls-2" d="m205.11,252.83c.07-2.73.07-7.77.07-12.04,0-3.15,0-5.88-.07-7.07-.21-4.13-2.38-5.81-4.9-5.81-3.71,0-8.12,3.57-8.33,8.33-.07,1.12-.07,2.45-.07,4.06,0,3.01.07,7.07.21,12.53v.14c0,2.31-1.75,3.57-3.5,3.57s-3.36-1.19-3.36-3.64v-.07c.07-2.73.07-7.77.07-12.04,0-3.15,0-5.88-.07-7.07-.28-4.2-2.45-5.88-4.9-5.88-3.64,0-7.98,3.57-8.19,8.4-.07,1.12-.07,2.45-.07,4.06,0,3.01.07,7.07.21,12.53.07,2.87-1.89,3.78-3.43,3.78-1.75,0-3.57-1.26-3.57-3.71v-.14c.21-7.49.28-12.39.28-16.94,0-3.5-.07-6.86-.14-10.92v-.14c0-2.31,1.89-3.36,3.5-3.36s3.5,1.12,3.5,3.5c0,.21.07.35.07.35.07,0,.21-.14.28-.21,2.24-2.52,5.32-3.78,8.4-3.78,3.85,0,7.63,2.1,9.45,6.37,2.73-4.27,6.72-6.3,10.57-6.3,5.53,0,10.64,4.2,10.85,11.83.07,2.45.14,8.47.14,13.58,0,2.31,0,4.41-.07,5.95-.07,2.66-1.75,3.92-3.5,3.92s-3.43-1.33-3.43-3.71v-.07Z"/>
          <path class="cls-2" d="m227.51,225.1c.07,0,.14,0,.21-.07,2.59-2.24,5.88-3.64,9.73-3.64,9.66,0,16.94,7,16.94,17.57s-7.28,17.57-16.94,17.57c-3.85,0-7.14-1.47-9.73-3.71-.14-.07-.28-.21-.35-.21-.14,0-.21.14-.21.42,0,7.7.14,14.35.21,17.22.07,2.17-1.4,3.64-3.57,3.64-1.89,0-3.71-1.26-3.71-3.64v-.35c.21-2.52.21-7.77.21-13.93,0-10.57-.14-23.73-.14-30.38,0-2.59,1.82-3.92,3.64-3.92,1.61,0,3.22,1.12,3.5,3.22.07.14.14.21.21.21Zm19.88,13.86c0-6.86-4.48-11.06-10.08-11.06s-10.08,4.2-10.08,11.06,4.48,11.2,10.08,11.2,10.08-4.27,10.08-11.2Z"/>
          <path class="cls-2" d="m286.45,254.93c-.63-.49-1.26-1.26-1.89-2.31-.07-.14-.21-.21-.28-.21-.14,0-.28.07-.42.21-2.38,2.73-6.79,4.2-10.92,4.2-7.7,0-12.25-5.6-12.25-10.99,0-3.57,2.1-7.14,6.79-8.75,4.83-1.68,10.85-3.01,11.97-3.08.7-.07,1.26-.91,1.26-2.38,0-.84-.21-4.41-4.97-4.41-3.15,0-5.53,1.47-6.86,2.94-.77.91-1.75,1.26-2.59,1.26-1.82,0-3.36-1.4-3.36-3.22,0-3.36,6.16-7.07,13.23-7.07,7.7,0,11.9,3.78,11.9,11.83,0,.91-.07,1.75-.14,2.73-.14,1.05-.35,3.71-.35,5.81,0,.63,0,1.19.07,1.61.63,5.6,3.22,5.81,3.78,6.23.77.56,1.12,1.47,1.12,2.45,0,1.96-1.54,4.2-3.57,4.2-.77,0-1.68-.35-2.52-1.05Zm-6.44-15.05c-11.83,1.47-12.53,4.41-12.53,6.09,0,2.17,1.89,4.34,5.46,4.34,5.67,0,8.12-2.87,8.12-7.84,0-1.05-.14-2.59-.98-2.59h-.07Z"/>
          <path class="cls-2" d="m321.94,252.83c.07-2.87.14-8.19.14-12.46,0-2.8-.07-5.18-.14-6.3-.28-4.34-2.73-6.09-5.67-6.09-4.27,0-9.38,3.78-9.59,8.47-.07,1.26-.07,2.87-.07,4.83,0,2.87.07,6.58.21,11.55.07,1.47-.77,3.57-3.57,3.57-1.89,0-3.71-1.19-3.71-3.43v-.14c.21-6.65.28-11.27.28-15.4s-.07-7.84-.21-12.53v-.14c0-2.1,2.03-3.15,3.78-3.15s3.57,1.05,3.57,3.29c0,.28-.07.49-.07.7v.21c0,.07,0,.14.07.14s.21-.14.35-.28c2.59-2.8,6.3-4.2,9.94-4.2,5.88,0,11.55,3.85,11.83,11.69.07,2.52.21,8.75.21,13.93,0,2.17,0,4.13-.07,5.6-.07,2.52-1.82,3.71-3.64,3.71s-3.64-1.26-3.64-3.5v-.07Z"/>
          <path class="cls-2" d="m351.97,256.82c-9.59,0-16.73-7.21-16.73-17.64s7.56-18.06,16.59-18.06c9.66,0,15.12,7.07,15.12,12.39,0,3.29-2.17,5.95-6.65,6.09-2.17.07-3.64.07-17.22.07-.42,0-.56.56-.56,1.33.07,5.81,4.55,9.31,9.52,9.31,4.41,0,7.07-2.1,9.1-4.27.7-.77,1.54-1.12,2.38-1.12,1.89,0,3.71,1.68,3.71,3.64,0,.84-.28,1.68-1.05,2.45-3.36,3.5-7.14,5.81-14.21,5.81Zm7.7-24.5c0-.98-1.47-5.11-7.77-5.11-5.67,0-8.75,4.9-8.75,6.09,0,.63.7.63,7.21.63,2.87,0,6.02,0,7.91-.07.84-.07,1.4-.7,1.4-1.54Z"/>
          <path class="cls-2" d="m372.75,252.41c.14-4.9.14-14.84.14-24.22s0-18.27-.14-21.07c-.07-2.52,1.82-3.92,3.85-3.92,1.89,0,3.78,1.26,3.78,3.71v.14c-.07,3.43-.21,14.21-.21,25.13,0,7.42.07,14.91.21,20.23v.14c0,2.45-1.89,3.64-3.78,3.64s-3.85-1.26-3.85-3.71v-.07Z"/>
          <path class="cls-2" d="m392.42,252.41c.14-4.9.14-14.84.14-24.22s0-18.27-.14-21.07c-.07-2.52,1.82-3.92,3.85-3.92,1.89,0,3.78,1.26,3.78,3.71v.14c-.07,3.43-.21,14.21-.21,25.13,0,7.42.07,14.91.21,20.23v.14c0,2.45-1.89,3.64-3.78,3.64s-3.85-1.26-3.85-3.71v-.07Z"/>
          <path class="cls-2" d="m430.43,254.93c-.63-.49-1.26-1.26-1.89-2.31-.07-.14-.21-.21-.28-.21-.14,0-.28.07-.42.21-2.38,2.73-6.79,4.2-10.92,4.2-7.7,0-12.25-5.6-12.25-10.99,0-3.57,2.1-7.14,6.79-8.75,4.83-1.68,10.85-3.01,11.97-3.08.7-.07,1.26-.91,1.26-2.38,0-.84-.21-4.41-4.97-4.41-3.15,0-5.53,1.47-6.86,2.94-.77.91-1.75,1.26-2.59,1.26-1.82,0-3.36-1.4-3.36-3.22,0-3.36,6.16-7.07,13.23-7.07,7.7,0,11.9,3.78,11.9,11.83,0,.91-.07,1.75-.14,2.73-.14,1.05-.35,3.71-.35,5.81,0,.63,0,1.19.07,1.61.63,5.6,3.22,5.81,3.78,6.23.77.56,1.12,1.47,1.12,2.45,0,1.96-1.54,4.2-3.57,4.2-.77,0-1.68-.35-2.52-1.05Zm-6.44-15.05c-11.83,1.47-12.53,4.41-12.53,6.09,0,2.17,1.89,4.34,5.46,4.34,5.67,0,8.12-2.87,8.12-7.84,0-1.05-.14-2.59-.98-2.59h-.07Z"/>
        </g>
        <g>
          <path class="cls-2" d="m414.12,211.15c4.19,1.9,10.48-.76,14.74-6.47,4.26-5.71,5.01-12.5,1.99-15.98l-16.73,22.44Z"/>
          <path class="cls-2" d="m413.98,193.59c-4.67,6.26-5.12,13.82-1.01,16.88l16.9-22.68c-4.11-3.06-11.22-.47-15.89,5.79Z"/>
        </g>
        <polygon class="cls-2" points="410.17 211.76 411.37 214.19 414.05 214.58 412.11 216.48 412.57 219.16 410.17 217.89 407.76 219.16 408.22 216.48 406.28 214.58 408.96 214.19 410.17 211.76"/>
      </g>
      <g>
        <g>
          <g>
            <path class="cls-9" d="m327.29,159.54c30.74-15.55,75.61-10.93,69.28-1.4-6.33,9.54-68.04,21.74-76.95,13.62,3.2-3.51,5.7-7.63,6.99-12.41l.68.19Z"/>
            <path class="cls-10" d="m327.57,151.85c.01,2.67-.33,5.16-.96,7.5-1.28,4.78-3.78,8.89-6.99,12.41-13.5,14.81-39.45,19.1-39.45,19.1,0,0-58.92,12.31-98.33-16.22-17.4-12.59-24.3-27.22-26.07-40.85h0c16.31,25.29,148.62,34.65,170.77,8.82l.12-.03c.57,3.21.9,6.3.91,9.26Z"/>
            <path class="cls-7" d="m326.67,142.59l-.12.03c-22.15,25.83-154.46,16.47-170.77-8.82h0c-2.23-17.23,3.73-32.87,6.98-40.74,2.16-5.25,4.28-16.46,8.45-29.36l1.18.38c6.41,3.25,34.75,6.61,41.69,5.56l.57-.26c.37.84.85,1.54,1.46,2.06,3.37,2.94,30.57,5.09,33.43,3.45,16.34,4.51,43.87,6.64,50.03,2.89l.97-.43c9.67,22,22.63,45.63,26.14,65.25Z"/>
            <path class="cls-5" d="m300.53,77.34l-.97.43c-6.17,3.75-33.69,1.63-50.03-2.89,2.5-1.43,3.97-3.44,4.83-11.2l.18.02c8.1-3.3,32.17-3.13,38.79-.36l1.34-.5c1.69,4.71,3.7,9.57,5.87,14.5Z"/>
            <path class="cls-9" d="m294.66,62.84l-1.34.5c-6.61-2.77-30.69-2.93-38.79.36l-.18-.02c.12-1.1.23-2.29.33-3.63.79-10.81-8.94-21-18.01-21.72s-19.52,5.7-22,16.25c-.29,1.24-.56,2.61-.74,4.02l-.17-.03c.1-2.43-22.05-18.32-34.8-11.99l-1.1-.04c7.97-17.06,20.62-33.85,42.17-41.77,26.1-9.59,65.85,6.16,69.61,38.5.7,6.07,2.53,12.65,5.01,19.56Z"/>
            <path class="cls-4" d="m236.67,38.33c9.07.72,18.79,10.91,18.01,21.72-.09,1.34-.2,2.53-.33,3.63-.85,7.76-2.33,9.77-4.83,11.2-2.86,1.64-30.05-.52-33.43-3.45-.61-.53-1.09-1.23-1.46-2.06-1.23-2.75-1.23-6.91-.71-10.76.19-1.41.45-2.78.74-4.02,2.48-10.56,12.93-16.97,22-16.25Z"/>
            <path class="cls-5" d="m213.76,58.58l.17.03c-.53,3.85-.52,8.01.71,10.76l-.57.26c-6.94,1.05-35.28-2.31-41.69-5.56l-1.18-.38c1.79-5.52,3.96-11.34,6.66-17.13l1.1.04c12.76-6.33,34.9,9.56,34.8,11.99Z"/>
          </g>
          <g>
            <path class="cls-8" d="m213.75,60.67c-.24,0-.48-.04-.72-.13-.71-.27-1.18-.91-1.27-1.61-2.19-3.26-21.29-15.81-31.92-10.54-.99.49-2.19.09-2.68-.9-.49-.99-.09-2.19.9-2.68,10.83-5.37,25.84,3.4,30.18,6.21,5.05,3.28,7.58,5.85,7.51,7.65v.33s-.14.4-.14.4c-.31.8-1.06,1.29-1.87,1.29Z"/>
            <path class="cls-8" d="m254.53,65.7c-.79,0-1.54-.47-1.85-1.25-.42-1.02.08-2.19,1.1-2.61,8.81-3.58,33.28-3.3,40.31-.35,1.02.43,1.5,1.6,1.07,2.62-.43,1.02-1.6,1.5-2.62,1.07-6.01-2.52-29.67-2.72-37.26.37-.25.1-.5.15-.75.15Z"/>
            <path class="cls-8" d="m258.21,159.94c-7.57,0-15.06-.27-22.13-.76-32-2.18-72.67-9.86-81.99-24.32-.6-.93-.33-2.17.6-2.76.93-.6,2.17-.33,2.76.6,6.9,10.71,38.61,19.75,78.9,22.49,43.37,2.96,79.01-2.62,88.67-13.89.72-.84,1.98-.94,2.82-.22.84.72.94,1.98.22,2.82-10.24,11.94-40.58,16.03-69.85,16.03Z"/>
            <path class="cls-8" d="m249.87,195.58c-20.49,0-47.55-3.65-69.21-19.32-15.67-11.34-24.71-25.54-26.88-42.21-2.17-16.73,3.02-31.85,7.12-41.76,1.02-2.48,2.06-6.45,3.36-11.47,1.3-4.99,2.92-11.21,5.04-17.75,2.08-6.38,4.28-12.06,6.75-17.36h0c10.06-21.55,24.63-35.95,43.3-42.8,14.97-5.5,34.4-3.06,49.5,6.23,13.09,8.05,21.19,20.1,22.79,33.91.63,5.42,2.23,11.68,4.91,19.11,1.51,4.22,3.42,8.92,5.82,14.37,2.41,5.49,5.08,11.19,7.67,16.71,7.84,16.73,15.94,34.04,18.62,49,.62,3.49.93,6.63.94,9.61.01,2.76-.34,5.46-1.03,8.03-1.28,4.77-3.79,9.22-7.44,13.23-13.81,15.14-39.52,19.54-40.61,19.73-1.07.22-13.58,2.75-30.62,2.75ZM179.67,47.39h0c-2.4,5.15-4.55,10.68-6.57,16.91-2.08,6.43-3.62,12.32-4.97,17.52-1.35,5.17-2.41,9.25-3.54,11.99-3.92,9.5-8.9,23.94-6.85,39.72,2.02,15.53,10.52,28.82,25.26,39.48,38.23,27.67,96.17,16,96.75,15.88.33-.06,25.52-4.38,38.39-18.49,3.22-3.53,5.42-7.42,6.53-11.58.61-2.23.91-4.57.9-6.97,0-2.75-.3-5.67-.88-8.92-2.58-14.45-10.57-31.51-18.3-48.01-2.59-5.54-5.27-11.26-7.7-16.79-2.44-5.53-4.37-10.32-5.92-14.63-2.78-7.73-4.45-14.27-5.12-20-1.46-12.57-8.89-23.57-20.91-30.97-14.09-8.67-32.16-10.98-46.02-5.88-17.89,6.57-31.32,19.89-41.05,40.74Z"/>
            <path class="cls-8" d="m243.46,77.4c-9.68,0-25.73-1.9-28.68-4.47-.81-.7-1.48-1.63-1.98-2.77-1.56-3.5-1.33-8.36-.86-11.83.18-1.36.44-2.78.78-4.21,2.8-11.95,14.69-18.54,24.1-17.79,9.72.77,20.74,11.58,19.84,23.86-.1,1.35-.2,2.57-.33,3.71-.83,7.58-2.25,10.67-5.82,12.71-.95.54-3.6.78-7.06.78Zm-8.15-37.12c-7.54,0-16.49,5.39-18.69,14.76-.31,1.31-.54,2.59-.71,3.83h0c-.56,4.12-.36,7.64.55,9.68.26.6.57,1.05.94,1.36.78.65,5.64,2.01,15.44,2.94,8.66.82,14.72.68,15.75.26,1.66-.95,2.95-2.23,3.77-9.65.12-1.09.23-2.25.32-3.55.71-9.8-8.29-18.96-16.17-19.58-.4-.03-.8-.05-1.2-.05Zm-21.38,18.33h0,0Z"/>
            <path class="cls-8" d="m332.85,176.42c-6.34,0-11.95-.8-14.57-3.18-.82-.74-.88-2.01-.13-2.83.74-.82,2.01-.88,2.83-.13,2.04,1.86,9.97,3.13,26.14,1.13,21.42-2.65,44.65-9.64,47.8-14.38.4-.6.33-.86-.05-1.3-4.72-5.32-39.69-8.05-66.66,5.59-.99.5-2.19.1-2.69-.88s-.1-2.19.88-2.69c26.39-13.35,64.37-12.65,71.46-4.68,1.63,1.84,1.78,4.09.4,6.17-4.87,7.34-33.09,13.96-50.64,16.13-4.68.58-9.93,1.04-14.76,1.04Z"/>
            <path class="cls-6" d="m234.55,67.73l-.35-.09c-.47-.13-11.61-3.18-17.07-10.46-.5-.66-.36-1.6.3-2.1.66-.5,1.6-.36,2.1.3,4.33,5.78,13.24,8.7,15.1,9.26,1.82-.44,10.11-2.59,14.39-6.42.62-.55,1.56-.5,2.12.12.55.62.5,1.57-.12,2.12-5.39,4.83-15.68,7.11-16.11,7.2l-.35.08Z"/>
            <path class="cls-3" d="m286.27,81.68c-11.8,0-27.45-2.16-37.28-4.87-1.06-.29-1.69-1.4-1.4-2.46.29-1.07,1.4-1.69,2.46-1.4,16.53,4.57,43.25,6.28,48.46,3.11.94-.58,2.17-.28,2.75.67.57.94.27,2.17-.67,2.75-2.56,1.56-7.87,2.21-14.33,2.21Z"/>
            <path class="cls-3" d="m210.37,71.82c-10.72,0-33.05-3.01-38.9-5.97-.98-.5-1.38-1.7-.88-2.69.5-.99,1.71-1.38,2.69-.88,6,3.04,33.79,6.38,40.48,5.37,1.08-.17,2.11.59,2.28,1.68.17,1.09-.59,2.11-1.68,2.28-1,.15-2.36.22-4,.22Z"/>
          </g>
        </g>
        <ellipse class="cls-8" cx="208.9" cy="45.66" rx="4.43" ry="2.8"/>
        <ellipse class="cls-8" cx="260.54" cy="51.25" rx="2.8" ry="4.43" transform="translate(173.26 302.03) rotate(-81.94)"/>
        <text/>
      </g>
    </g>
  </g>
</svg>