<?xml version="1.0" encoding="UTF-8"?>
<svg id="_レイヤー_2" data-name="レイヤー 2" xmlns="http://www.w3.org/2000/svg" viewBox="0 0 204.05 203.24">
  <defs>
    <style>
      .cls-1 {
        fill: none;
        stroke: #fff;
        stroke-miterlimit: 10;
        stroke-width: 3.56px;
      }

      .cls-2 {
        font-family: TsukuARdGothic-Bold-83pv-RKSJ-H, 'Tsukushi A Round Gothic';
        font-size: 30.48px;
        font-weight: 700;
      }

      .cls-2, .cls-3 {
        fill: #fff;
      }

      .cls-4 {
        fill: #fff100;
      }

      .cls-5 {
        fill: #b0dff8;
      }

      .cls-6 {
        fill: #b2d24f;
      }

      .cls-7 {
        letter-spacing: 0em;
      }

      .cls-8 {
        letter-spacing: 0em;
      }
    </style>
  </defs>
  <g id="_レイヤー_2-2" data-name="レイヤー 2">
    <g>
      <rect class="cls-5" x=".12" width="203.24" height="203.24" rx="12.56" ry="12.56"/>
      <path class="cls-3" d="m120.87,139.92h0c0-1.19.91-2.19,2.1-2.3,3.46-.33,5.8-1.06,7.02-2.21,1.49-1.37,2.24-3.89,2.24-7.55v-39.22c0-3.59-.79-5.94-2.36-7.07-.98-.68-3.16-1.18-6.55-1.52-1.18-.12-2.09-1.11-2.09-2.3v-.07c0-1.25,1-2.28,2.26-2.31,5.2-.13,10.06-.71,14.57-1.74,1.44-.33,2.81.78,2.81,2.26v2.73c0,2,2.38,3.08,3.85,1.73,1.9-1.75,4.06-3.26,6.48-4.53,3.75-1.93,7.51-2.9,11.3-2.9,7.69,0,13.8,2.78,18.31,8.34,3.67,4.55,5.5,10.86,5.5,18.91v27.68c0,3.87.77,6.45,2.3,7.73,1.19,1.02,3.55,1.69,7.08,2.03,1.19.11,2.1,1.11,2.1,2.3h0c0,1.29-1.04,2.32-2.31,2.32h-26.01c-1.28,0-2.31-1.04-2.31-2.31v-.04c0-1.18.89-2.16,2.06-2.3,3.07-.36,5.23-1.08,6.46-2.18,1.33-1.17,1.99-3.69,1.99-7.55v-28.04c0-6-1.49-10.82-4.47-14.44-2.86-3.5-6.69-5.26-11.48-5.26-7.41,0-14.22,4.41-20.43,13.24-.27.39-.42.86-.42,1.33v33.17c0,3.79.7,6.31,2.12,7.55,1.16,1.06,3.24,1.78,6.24,2.16,1.16.15,2.04,1.12,2.04,2.3v.06c0,1.28-1.04,2.31-2.31,2.31h-25.77c-1.28,0-2.31-1.04-2.31-2.31Z"/>
      <path class="cls-3" d="m12.45,29.96c-2.73,4.26-4.87,10.62-2.42,15.46s9.33,5.41,12.67,1.21l-2.12-1.24c-.86,2.62-1.28,6.51,2.03,7.62,1.51.51,3.36.31,4.91.11,1.72-.22,3.37-.66,4.98-1.32,1.49-.62.84-3.08-.68-2.45-2.22.92-4.55,1.43-6.96,1.4-1.1-.01-2.08-.12-2.37-1.34-.26-1.11.19-2.29.54-3.34.38-1.15-1.33-2.24-2.12-1.24-2.62,3.31-7.8,2.54-9.03-1.63s.65-8.65,2.78-11.97c.89-1.38-1.31-2.66-2.19-1.28h0Z"/>
      <path class="cls-3" d="m30.93,9.99c-2.89,3.2-4.64,7.33-4.74,11.67-.04,2.01.49,3.81,2.17,5.03,1.81,1.31,4.07,1.39,6.22,1.37l-.9-2.17c-2.57,2.09-3.68,5.82-2.48,8.95.59,1.53,1.61,2.79,2.94,3.74.66.47,1.39.83,2.16,1.08.39.13.78.21,1.19.28.23.03.46.06.69.08.29.1.3.02.01-.25.44,1.57,2.89.9,2.45-.68-.39-1.41-1.6-1.45-2.82-1.66-1.4-.25-2.69-1.05-3.54-2.2-1.81-2.42-1.04-5.73,1.2-7.55.88-.72.13-2.18-.9-2.17-1.59.01-3.46.1-4.8-.92s-1.12-2.71-.97-4.15c.33-3.22,1.76-6.27,3.92-8.67,1.09-1.21-.7-3.01-1.8-1.8h0Z"/>
      <path class="cls-3" d="m57.45,8.45c-2.8,2.01-5.16,5-5.68,8.5-.24,1.63-.05,3.34.85,4.75s2.39,2.39,3.85,3.25l.3-2.32c-2.91.89-5.31,3.31-5.87,6.36-.59,3.23.8,6.33,3.37,8.29,1.3.99,2.57-1.21,1.28-2.19-3.73-2.85-2.47-8.66,1.9-10,1.04-.32,1.26-1.75.3-2.32-1.01-.6-2.12-1.21-2.83-2.18-.79-1.07-.85-2.46-.56-3.71.57-2.52,2.31-4.73,4.37-6.22,1.32-.95.05-3.15-1.28-2.19h0Z"/>
      <path class="cls-1" d="m146.4,91.6c-.86,1.01-1.72,2.1-2.56,3.28v24.6c2.01-6.16,3.11-12.73,3.11-19.56,0-2.82-.19-5.6-.55-8.32Zm-62.32-54.55c-34.72,0-62.87,28.15-62.87,62.87s28.15,62.87,62.87,62.87c16.94,0,32.31-6.7,43.61-17.59h-4.51c-1.78,0-3.35-.88-4.31-2.23-9.51,7.69-21.61,12.31-34.8,12.31-30.57,0-55.35-24.78-55.35-55.35s24.78-55.35,55.35-55.35c20.28,0,38.01,10.91,47.65,27.18,1.95-.26,3.85-.6,5.67-1.01.39-.09.78-.13,1.17-.13.42,0,.82.05,1.21.15-10.51-20.03-31.51-33.7-55.7-33.7Z"/>
      <line class="cls-1" x1="203.36" y1="193.91" x2=".12" y2="193.91"/>
      <text class="cls-2" transform="translate(0 189.24)"><tspan x="0" y="0">nanohana </tspan><tspan class="cls-8" x="144.64" y="0">c</tspan><tspan class="cls-7" x="160.43" y="0">a</tspan><tspan x="176.07" y="0">fe</tspan></text>
      <g>
        <g>
          <rect class="cls-4" x="60.86" y="76.42" width=".13" height=".19" transform="translate(-35.16 94.82) rotate(-62.26)"/>
          <path class="cls-4" d="m74.54,68.91c.14-2.95-2.14-4.5-4.87-4.23h0s-.05-.01-.05-.01c1.33-.69,2.33-2.54,2.43-3.7.13-1.7-1.3-3.38-1.3-3.38-.76-1.25-2.56-2.62-2.56-2.62,0,0-1.1-.56-4.4-.54-2.75.02-4.18,2.07-4.02,4.55-.84-1.09-2.35-1.91-3.37-2.01-1.7-.15-3.39,1.26-3.39,1.26-1.26.75-2.65,2.53-2.65,2.53,0,0-.57,1.09-.59,4.4-.02,2.69,1.93,4.14,4.33,4.08-1.14.81-1.96,2.42-2.05,3.47-.13,1.7,1.3,3.38,1.3,3.38.76,1.25,2.56,2.62,2.56,2.62,0,0,1.1.56,4.4.54,2.74-.02,4.17-2.06,4.02-4.52.8,1.1,2.24,1.96,3.24,2.1,1.69.22,3.44-1.12,3.44-1.12,1.29-.69,2.76-2.42,2.76-2.42,0,0,.62-1.07.78-4.37Z"/>
        </g>
        <circle class="cls-3" cx="62.12" cy="66.88" r="2.68"/>
      </g>
      <g>
        <g>
          <g>
            <rect class="cls-4" x="130.88" y="160.16" width=".07" height=".1" transform="translate(-74.07 132.11) rotate(-42.94)"/>
            <path class="cls-4" d="m139.18,158.78c.6-1.47-.29-2.67-1.72-3.01h0s-.02-.02-.02-.02c.8-.11,1.64-.87,1.89-1.45.37-.84-.06-1.95-.06-1.95-.16-.77-.84-1.79-.84-1.79,0,0-.46-.48-2.14-1.06-1.4-.48-2.49.31-2.85,1.59-.23-.7-.85-1.39-1.35-1.62-.84-.38-1.95.04-1.95.04-.77.15-1.8.81-1.8.81,0,0-.49.45-1.08,2.13-.49,1.36.25,2.45,1.48,2.84-.72.21-1.42.88-1.66,1.39-.37.84.06,1.95.06,1.95.16.77.84,1.79.84,1.79,0,0,.46.48,2.14,1.06,1.4.48,2.48-.3,2.85-1.58.21.7.79,1.39,1.27,1.64.82.41,1.95.05,1.95.05.78-.12,1.83-.74,1.83-.74,0,0,.5-.43,1.17-2.08Z"/>
          </g>
          <circle class="cls-3" cx="133.24" cy="155.53" r="1.44"/>
        </g>
        <g>
          <g>
            <rect class="cls-4" x="144.63" y="160.16" width=".07" height=".1" transform="translate(-70.38 141.47) rotate(-42.94)"/>
            <path class="cls-4" d="m152.93,158.78c.6-1.47-.29-2.67-1.72-3.01h0s-.02-.02-.02-.02c.8-.11,1.64-.87,1.89-1.45.37-.84-.06-1.95-.06-1.95-.16-.77-.84-1.79-.84-1.79,0,0-.46-.48-2.14-1.06-1.4-.48-2.49.31-2.85,1.59-.23-.7-.85-1.39-1.35-1.62-.84-.38-1.95.04-1.95.04-.77.15-1.8.81-1.8.81,0,0-.49.45-1.08,2.13-.49,1.36.25,2.45,1.48,2.84-.72.21-1.42.88-1.66,1.39-.37.84.06,1.95.06,1.95.16.77.84,1.79.84,1.79,0,0,.46.48,2.14,1.06,1.4.48,2.48-.3,2.85-1.58.21.7.79,1.39,1.27,1.64.82.41,1.95.05,1.95.05.78-.12,1.83-.74,1.83-.74,0,0,.5-.43,1.17-2.08Z"/>
          </g>
          <circle class="cls-3" cx="146.98" cy="155.53" r="1.44"/>
        </g>
        <g>
          <g>
            <rect class="cls-4" x="158.37" y="160.16" width=".07" height=".1" transform="translate(-66.7 150.83) rotate(-42.94)"/>
            <path class="cls-4" d="m166.67,158.78c.6-1.47-.29-2.67-1.72-3.01h0s-.02-.02-.02-.02c.8-.11,1.64-.87,1.89-1.45.37-.84-.06-1.95-.06-1.95-.16-.77-.84-1.79-.84-1.79,0,0-.46-.48-2.14-1.06-1.4-.48-2.49.31-2.85,1.59-.23-.7-.85-1.39-1.35-1.62-.84-.38-1.95.04-1.95.04-.77.15-1.8.81-1.8.81,0,0-.49.45-1.08,2.13-.49,1.36.25,2.45,1.48,2.84-.72.21-1.42.88-1.66,1.39-.37.84.06,1.95.06,1.95.16.77.84,1.79.84,1.79,0,0,.46.48,2.14,1.06,1.4.48,2.48-.3,2.85-1.58.21.7.79,1.39,1.27,1.64.82.41,1.95.05,1.95.05.78-.12,1.83-.74,1.83-.74,0,0,.5-.43,1.17-2.08Z"/>
          </g>
          <circle class="cls-3" cx="160.73" cy="155.53" r="1.44"/>
        </g>
        <g>
          <g>
            <rect class="cls-4" x="172.11" y="160.16" width=".07" height=".1" transform="translate(-63.02 160.2) rotate(-42.94)"/>
            <path class="cls-4" d="m180.41,158.78c.6-1.47-.29-2.67-1.72-3.01h0s-.02-.02-.02-.02c.8-.11,1.64-.87,1.89-1.45.37-.84-.06-1.95-.06-1.95-.16-.77-.84-1.79-.84-1.79,0,0-.46-.48-2.14-1.06-1.4-.48-2.49.31-2.85,1.59-.23-.7-.85-1.39-1.35-1.62-.84-.38-1.95.04-1.95.04-.77.15-1.8.81-1.8.81,0,0-.49.45-1.08,2.13-.49,1.36.25,2.45,1.48,2.84-.72.21-1.42.88-1.66,1.39-.37.84.06,1.95.06,1.95.16.77.84,1.79.84,1.79,0,0,.46.48,2.14,1.06,1.4.48,2.48-.3,2.85-1.58.21.7.79,1.39,1.27,1.64.82.41,1.95.05,1.95.05.78-.12,1.83-.74,1.83-.74,0,0,.5-.43,1.17-2.08Z"/>
          </g>
          <circle class="cls-3" cx="174.47" cy="155.53" r="1.44"/>
        </g>
        <g>
          <g>
            <rect class="cls-4" x="185.85" y="160.16" width=".07" height=".1" transform="translate(-59.34 169.56) rotate(-42.94)"/>
            <path class="cls-4" d="m194.15,158.78c.6-1.47-.29-2.67-1.72-3.01h0s-.02-.02-.02-.02c.8-.11,1.64-.87,1.89-1.45.37-.84-.06-1.95-.06-1.95-.16-.77-.84-1.79-.84-1.79,0,0-.46-.48-2.14-1.06-1.4-.48-2.49.31-2.85,1.59-.23-.7-.85-1.39-1.35-1.62-.84-.38-1.95.04-1.95.04-.77.15-1.8.81-1.8.81,0,0-.49.45-1.08,2.13-.49,1.36.25,2.45,1.48,2.84-.72.21-1.42.88-1.66,1.39-.37.84.06,1.95.06,1.95.16.77.84,1.79.84,1.79,0,0,.46.48,2.14,1.06,1.4.48,2.48-.3,2.85-1.58.21.7.79,1.39,1.27,1.64.82.41,1.95.05,1.95.05.78-.12,1.83-.74,1.83-.74,0,0,.5-.43,1.17-2.08Z"/>
          </g>
          <circle class="cls-3" cx="188.21" cy="155.53" r="1.44"/>
        </g>
      </g>
      <path class="cls-6" d="m94.39,55.78s-3.7,3.7-8.02,4.87-8.63-.81-8.63-.81c0,0,2.71-3.89,7.04-5.06,4.33-1.17,9.62,1,9.62,1Z"/>
      <path class="cls-6" d="m109.63,63.99s-4.93,1.75-9.34.95c-4.41-.8-7.44-4.44-7.44-4.44,0,0,4.12-2.35,8.53-1.55,4.41.8,8.26,5.03,8.26,5.03Z"/>
      <path class="cls-6" d="m45.63,87.7s-1.98-4.84-1.38-9.28c.59-4.44,4.09-7.64,4.09-7.64,0,0,2.53,4,1.94,8.45-.59,4.44-4.65,8.48-4.65,8.48Z"/>
      <path class="cls-6" d="m37.22,105.25s2-4.83,5.54-7.58,8.28-2.56,8.28-2.56c0,0-1.01,4.63-4.56,7.37-3.54,2.74-9.26,2.76-9.26,2.76Z"/>
      <path class="cls-6" d="m41.04,118s5.02.95,8.34,3.8c3.32,2.85,4.09,7.41,4.09,7.41,0,0-4.63-.05-7.95-2.9-3.32-2.85-4.48-8.31-4.48-8.31Z"/>
      <path class="cls-6" d="m63.69,125.64s2.02,4.82,1.47,9.27c-.55,4.45-4.02,7.68-4.02,7.68,0,0-2.57-3.98-2.02-8.43.55-4.45,4.57-8.52,4.57-8.52Z"/>
      <path class="cls-6" d="m84.05,148.39s-5.15-.89-8.6-3.75c-3.45-2.86-4.31-7.52-4.31-7.52,0,0,4.74-.02,8.19,2.84s4.72,8.44,4.72,8.44Z"/>
      <path class="cls-6" d="m110.13,138.83s-.04-5.23,2.16-9.13c2.2-3.9,6.64-5.57,6.64-5.57,0,0,.87,4.66-1.34,8.56-2.2,3.9-7.46,6.15-7.46,6.15Z"/>
      <g>
        <g>
          <rect class="cls-4" x="93.62" y="143.7" width=".13" height=".19" transform="translate(-77.19 159.77) rotate(-62.26)"/>
          <path class="cls-4" d="m107.3,136.19c.14-2.95-2.14-4.5-4.87-4.23h0s-.05-.01-.05-.01c1.33-.69,2.33-2.54,2.43-3.7.13-1.7-1.3-3.38-1.3-3.38-.76-1.25-2.56-2.62-2.56-2.62,0,0-1.1-.56-4.4-.54-2.75.02-4.18,2.07-4.02,4.55-.84-1.09-2.35-1.91-3.37-2.01-1.7-.15-3.39,1.26-3.39,1.26-1.26.75-2.65,2.53-2.65,2.53,0,0-.57,1.09-.59,4.4-.02,2.69,1.93,4.14,4.33,4.08-1.14.81-1.96,2.42-2.05,3.47-.13,1.7,1.3,3.38,1.3,3.38.76,1.25,2.56,2.62,2.56,2.62,0,0,1.1.56,4.4.54,2.74-.02,4.17-2.06,4.02-4.52.8,1.1,2.24,1.96,3.24,2.1,1.69.22,3.44-1.12,3.44-1.12,1.29-.69,2.76-2.42,2.76-2.42,0,0,.62-1.07.78-4.37Z"/>
        </g>
        <circle class="cls-3" cx="94.88" cy="134.16" r="2.68"/>
      </g>
    </g>
  </g>
</svg>