<?xml version="1.0" encoding="UTF-8"?>
<svg id="_レイヤー_2" data-name="レイヤー 2" xmlns="http://www.w3.org/2000/svg" viewBox="0 0 271.53 208.16">
  <defs>
    <style>
      .cls-1 {
        fill: #f5b081;
        stroke: #f5b081;
        stroke-width: .67px;
      }

      .cls-1, .cls-2, .cls-3, .cls-4, .cls-5, .cls-6, .cls-7, .cls-8, .cls-9 {
        stroke-miterlimit: 10;
      }

      .cls-2 {
        stroke-width: .25px;
      }

      .cls-2, .cls-3, .cls-7, .cls-9 {
        fill: #3e3a39;
        stroke: #3e3a39;
      }

      .cls-10 {
        fill: #0085a5;
      }

      .cls-10, .cls-11 {
        stroke-width: 0px;
      }

      .cls-3 {
        stroke-width: .25px;
      }

      .cls-4 {
        stroke-width: .61px;
      }

      .cls-4, .cls-11, .cls-5, .cls-6, .cls-8 {
        fill: #fbc93e;
      }

      .cls-4, .cls-5, .cls-6, .cls-8 {
        stroke: #fbc93e;
      }

      .cls-5 {
        stroke-width: .61px;
      }

      .cls-6 {
        stroke-width: .64px;
      }

      .cls-7 {
        stroke-width: .32px;
      }

      .cls-8 {
        stroke-width: .66px;
      }

      .cls-9 {
        stroke-width: .26px;
      }
    </style>
  </defs>
  <g id="_レイヤー_5" data-name="レイヤー 5">
    <g>
      <circle class="cls-10" cx="91.42" cy="119.44" r="86.38"/>
      <path class="cls-1" d="m248.74,104.77c-2.16,1.04-8.25,2.85-12.4,2.16-4.15-.69-9.9-4.32-9.9-4.32l-1.21,1.05c2.94,3.82,9.07,5.82,11.41,6.03s7.56,0,11.54-1.51c3.98-1.51,7.99-6.01,7.99-6.01l-.3-1.6s-4.97,3.15-7.13,4.19Z"/>
      <path class="cls-1" d="m229.68,91.48l-1.47-.95s-7.3,5.83-10.33,12.83l.95,1.81s9.03-13.05,10.85-13.7Z"/>
      <path class="cls-8" d="m111.13,130.01c7.14-10.8,14.38-15.42,21.7-13.86,5.18,1.1,8.77,4.57,10.78,10.4,1.86,5.41,1.98,11.89.38,19.43l-4.64,21.01-2.56,12.06c-2.41,11.35-3.47,17.93-3.17,19.75.26,1.81,2.1,3.41,5.54,4.79.65.33.84,1.12.58,2.37-.29,1.37-.78,1.98-1.47,1.84-4.51-1.22-8.18-2.13-11.02-2.73-2.99-.64-6.95-1.35-11.87-2.13-.69-.15-.89-.91-.6-2.28.26-1.25.76-1.89,1.49-1.93,3.29.37,5.55-.35,6.78-2.18,1.05-1.54,2.78-7.98,5.19-19.33l6.22-29.27c.95-4.49,1.29-8.23,1-11.22-.6-6.97-3.28-10.96-8.04-11.97s-9.41,1.75-14.19,8.23c-2.53,3.44-4.44,8.18-5.73,14.23l-5.21,24.5c-2.46,11.6-3.58,18.17-3.35,19.72.22,1.22.71,2.14,1.46,2.75.76.55,2.26,1.26,4.48,2.12.57.32.73,1.1.46,2.35-.29,1.37-.74,1.99-1.36,1.86-4.66-1.25-8.34-2.16-11.02-2.73-3.14-.67-7.1-1.38-11.87-2.13-.61-.13-.77-.88-.48-2.25.26-1.25.72-1.9,1.38-1.96,3.31.25,5.57-.48,6.78-2.18,1.06-1.6,2.79-8.04,5.19-19.33l5.68-26.75c1.7-7.98,2.49-13.22,2.38-15.72-.2-2.84-1.03-4.42-2.48-4.73l-4.16-.49c-.73-.15-.89-1.2-.48-3.13.24-1.12.91-1.73,2.01-1.82,5.23-.65,10.84-2.16,16.84-4.54.84.18,1.15.83.91,1.95-1.61,6.83-2.77,11.92-3.49,15.29Z"/>
      <path class="cls-2" d="m110.45,39.75c2.4-.96,4.32-2.16,5.88-3.49-1.03-.34-2.06-.66-3.1-.96-3.04,2.82-5.89,4.45-5.89,4.45h3.11Z"/>
      <path class="cls-7" d="m72.05,58.22c-1,4.55-2.36,12.29-4.08,23.23l-.15.63c-.21.83-1.15,1.04-2.82.63-.93-.23-1.43-.87-1.49-1.92-1.01-14.19-6.53-22.53-16.55-25.02-4.76-1.18-8.83-.53-12.2,1.96-2.96,2.14-4.97,5.37-6.04,9.68-.88,3.55-.49,6.74,1.17,9.59,1.73,3.08,5.39,6.87,10.97,11.35l6.06,4.93c7.66,6.18,12.45,12.16,14.36,17.94,1.6,4.68,1.62,10.14.07,16.4-2.34,9.45-7.22,16.18-14.64,20.17-6.81,3.63-14.79,4.31-23.94,2.04-7.86-1.95-15.39-5.7-22.62-11.25.02-5.38.39-12.56,1.1-21.53l.23-1.71c.29-1.18,1.21-1.58,2.76-1.2.99.24,1.57.83,1.73,1.76.96,7.76,3.46,14.25,7.49,19.45,3.41,4.53,7.43,7.37,12.07,8.52,5.44,1.35,10.19.46,14.25-2.67,3.55-2.66,5.94-6.5,7.18-11.5,1.1-4.45.75-8.48-1.04-12.1-1.77-3.46-5.08-7.2-9.93-11.2l-5.88-4.89c-7.73-6.41-12.5-12.21-14.31-17.38-1.53-4.44-1.5-9.85.09-16.25,1.86-7.51,6.13-12.94,12.8-16.31,5.86-2.98,12.28-3.6,19.27-1.87,3.4.84,7.44,2.55,12.13,5.11,2.12.97,4.51,1.78,7.17,2.44,1.42.35,3.02.67,4.78.96Z"/>
      <path class="cls-6" d="m50.57,181.09c1.91-2,4.77-5.07,8.57-9.19l12.7-13.39c3.85-4.1,6.38-7.14,7.61-9.12.93-1.51,1.3-2.71,1.09-3.61-.21-.84-.97-1.75-2.28-2.73-.37-.34-.28-.94.26-1.81s1.03-1.25,1.4-1.03c2.46,1.74,4.45,3.09,5.98,4.03,1.13.7,3.02,1.76,5.68,3.19.42.26.34.84-.23,1.76s-1.04,1.22-1.51,1.04c-1.88-.72-3.62-.62-5.22.31-1.24.71-4.61,3.93-10.09,9.65l-18.49,19.03c-4.47,4.7-8.49,8.96-12.05,12.8-2.07.31-3.2.4-3.39.29-.21-.13-.22-.41-.05-.85.76-1.89,3-7.73,6.72-17.5l5.54-15.27c2.46-6.39,3.8-9.89,4.03-10.52-2.32,2.41-4.8,4.99-7.43,7.75l-11.99,11.93c-5.2,5.29-9.23,9.49-12.11,12.6-2.1.29-3.24.38-3.42.27-.21-.13-.25-.43-.12-.9,2.67-6.63,4.94-12.45,6.79-17.46l9.19-24.95c2.74-7.31,4.2-11.87,4.36-13.69.19-1.64-.52-3.1-2.13-4.37-.37-.34-.25-.98.34-1.93.52-.83.98-1.12,1.4-.86,2.95,2.05,5.17,3.53,6.67,4.46,1.68,1.04,4.05,2.4,7.1,4.07.37.23.27.8-.29,1.71s-1.07,1.21-1.58,1c-1.57-.81-2.74-1.09-3.5-.85-.59.18-1.22.81-1.88,1.88-1.01,1.63-2.69,5.61-5.05,11.94l-6.89,18.47c-.94,2.55-2.32,6.03-4.13,10.46.68-.68,1.56-1.59,2.65-2.73,2.22-2.25,4.06-4.1,5.51-5.57l10.69-10.92c3.82-3.84,6.42-6.45,7.82-7.84,1.57-4.03,2.33-6.63,2.3-7.8-.1-1.33-.91-2.62-2.42-3.89-.37-.34-.28-.94.26-1.81s1.03-1.25,1.4-1.03c2.95,2.05,5.1,3.49,6.46,4.33,1.64,1.01,3.92,2.32,6.86,3.92.37.23.27.8-.29,1.71s-1.04,1.22-1.51,1.04c-1.57-.81-2.74-1.09-3.5-.85-.64.21-1.28.83-1.92,1.86-.91,1.47-2.57,5.46-4.98,11.99l-6.55,17.69c-1.41,3.52-2.87,7.28-4.37,11.3Z"/>
      <path class="cls-9" d="m76.36,163.29c-.23-5.96-.55-9.81-.95-11.55-.45-1.83-1.11-2.65-1.98-2.46l-2.35.78c-.33.07-.52-.52-.57-1.78-.03-.88.2-1.57.7-2.05,3.12-2.4,5.86-4.96,8.22-7.67.5-.11.76.28.8,1.17.19,9.11.43,17.32.71,24.63l.7,17.87c.34,8.8.66,13.68.95,14.65.36,1.19,1.65,1.73,3.88,1.63.34.07.52.55.56,1.43.05,1.26-.09,1.92-.42,1.99-2.55.36-4.62.71-6.19,1.04-1.86.4-4.02.96-6.48,1.67-.33.07-.52-.52-.57-1.78-.03-.88.11-1.43.44-1.64,1.91-.88,3.05-1.94,3.41-3.2.29-1.09.26-6.04-.08-14.84l-.78-19.9Zm-.62-46.78c.95.31,1.73,1.52,2.36,3.62.54,1.83.75,3.65.65,5.45-.14,2.36-.67,4.22-1.57,5.57-.78,1.11-1.58,1.53-2.41,1.25-.99-.33-1.8-1.49-2.43-3.5-.57-1.75-.79-3.64-.66-5.67s.67-3.89,1.61-5.27c.79-1.25,1.61-1.73,2.45-1.45Z"/>
      <g>
        <path class="cls-10" d="m226.79,100.51l2.09-2.66c5.82,5.12,13.8,6.64,20.84,3.96-3.37,2.85-7.66,3.86-11.71,3.35s-7.86-2.42-11.29-4.94"/>
        <path class="cls-10" d="m163.59,25.95c1.38-1.78,3.17-6.28,8.16-4.04,5.35,2.39,20.96,36.88,35.07,50.64h-2.68c-5.56-5.77-9.68-11.93-13.98-18.71-4.1-6.47-7.45-11.82-12.63-17.46-1.4-1.53-5.43-4.9-7.18-6.01-1.85-1.18-3.34-.74-4.92.11-.71-1.5-1.3-2.29-2.74-3.18"/>
        <path class="cls-3" d="m119.37,38.32l-4.71,1.75c1.86,5.49-8.9,15.18-8.9,15.18,11.87-3.49,13.61-16.93,13.61-16.93Z"/>
        <path class="cls-3" d="m144.68,63.55c.17-.95.64-2.36,1.74-3.51,0,0,2.87-1.22,5.94-2.93-.59-.61-1.19-1.21-1.79-1.8-1.45.6-2.91,1.05-4.15,1.15,0,0-1.71,4.29-1.74,7.08Z"/>
        <path class="cls-3" d="m170.56,85.07c-.58-1.42-1.19-2.83-1.84-4.21l-5.2,4.35c2.38-.24,4.76-.26,7.04-.14Z"/>
        <path class="cls-3" d="m166.29,141.26s-3.72,2.33-10.24-15.36c-4.18-17.11-4.19-29.79-4.19-29.79,0,0-14.89,17.72-20.01,2.11,0,0-3.72-8.48-1.4-25.08,0,0-23.63,5.1-34.44-11.63-6.21-9.61-6.23-19.4-3.16-27.47-1.09-.04-2.18-.07-3.28-.07-3.91,0-7.76.26-11.54.76-1.33,2.66-2.49,5.57-3.44,8.78-9.77,33.04,22.81,50.26,49.34,41.89,0,0-7.91,17.98-4.19,27.6,3.72,9.63,15.82,10.65,15.82,10.65,0,0-2.39,40.66,27.16,45.5,6.61-10.09,11.18-21.63,13.14-34.03-3.11,3.43-6.37,5.8-9.58,6.14Z"/>
        <path class="cls-5" d="m248.74,104.77c-2.16,1.04-8.25,2.85-12.4,2.16-4.15-.69-9.9-4.32-9.9-4.32l-1.21,1.05c2.94,3.82,9.07,5.82,11.41,6.03s7.56,0,11.54-1.51c3.98-1.51,7.99-6.01,7.99-6.01l-.3-1.6s-4.97,3.15-7.13,4.19Z"/>
        <path class="cls-4" d="m197.32,98.63s-7.38,22.14-16.83,33.56c-1.4,12.48-5.44,24.22-11.58,34.6,4.94.58,10.71.13,17.46-1.7,12.19-4.6,20.09-12.46,24.14-22.03,2.96-6.97,5.18-13.01,6.92-21.67,0,0,8.53-17.8-20.12-22.75Z"/>
        <path class="cls-5" d="m124.58,18.39l-2.18-.94c1.81,6.59-2.29,12.13-6.07,15.63.94.27,1.87.56,2.8.86,8.56-7.81,6.27-16.72,5.45-15.55Z"/>
        <path class="cls-5" d="m128.66,31.92c5.83-1.72,5.16-4.09,5.16-4.09h-.86c-.45,2.7-3.49,3.83-4.3,4.09Z"/>
        <path class="cls-5" d="m150.9,28.67s.17,5.88,0,7.09l.35.86,1.77-5.01-1.47-4.4s-7.05.59-8.09.59v.86s3.45.03,4.78-.09,2.66.09,2.66.09Z"/>
        <path class="cls-5" d="m154.68,44.9l6.87-10.88s-3.67-5.55-3.96-5.15-4.24,6.44-4.76,10.9l1.85,5.13Z"/>
        <polygon class="cls-4" points="154.71 50.91 156.09 51.22 155.36 46.07 153.38 45.79 154.71 50.91"/>
        <path class="cls-4" d="m192.03,88.82c5.76-5.58,2.84-9.98,2.84-9.98-7.41-9.57-15.23-4.68-15.23-4.68l-7.89,6.59c.65,1.39,1.26,2.79,1.84,4.21,10.09.53,18.44,3.85,18.44,3.85Z"/>
        <path class="cls-4" d="m173.84,17.58c5.44,2.8,21.36,21.64,21.77,23.82l-8.49-12.83c1.02.36-7.66-9.67-12.23-12.74-5.13-3.44-15.67,4.15-14.85,6.07v2.22c.1-1.7,8.75-9.16,13.8-6.55Z"/>
        <path class="cls-4" d="m205.93,50.01c1.22,2.62,9.15,19.13,9.15,19.13l-2.7-7.26-5.41-13.91c-.7.76-6.46,1.34-6.46,1.34,0,0-3.32,1.41-2.95,1.82,1.4,1.57,8.36-1.12,8.36-1.12Z"/>
        <path class="cls-4" d="m206.82,83.19l2.09,2.79s-.17-7.63,10.65-8.35c0,0,5.24.52,7.16,4.18v-1.23s-3.45-4.8-8.73-4.84c-5.28-.04-10.86,5.02-11.17,7.46Z"/>
        <path class="cls-5" d="m229.68,91.48l-1.47-.95s-7.3,5.83-10.33,12.83l.95,1.81s9.03-13.05,10.85-13.7Z"/>
        <path class="cls-5" d="m239.26,83.26c8.48-9.17-5.04-29.5-5.04-29.5h-1.26c2.41,1.44,9.74,21.21,6.88,25.63-2.86,4.42-7.33,4.97-7.33,4.97l-1.15,1.66c6.88-.55,7.91-2.76,7.91-2.76Z"/>
        <path class="cls-5" d="m250.72,54.54c6.65-1.44,17.19-8.62,20.28-14.36v-2.47s-8.71,8.57-14.21,11.32c-5.5,2.75-10.57,4.74-18.58,2.2v2.04s5.86,2.71,12.51,1.27Z"/>
        <path class="cls-5" d="m269.26,50.43c.36,6.74-.63,17.2-2.36,26.96-1.73,9.76-7.21,20.31-7.21,20.31l.66.82s5.26-7.95,8.54-19.96c3.28-12.01,2.17-29.77,2.17-29.77,0,0-1.81,1.26-1.79,1.64Z"/>
        <g>
          <path class="cls-11" d="m171.77,35.51c1.83-.22,4.2,1.94,5.61,3.49,9.96,10.96,16.74,24.49,26.46,35.67-.59.2-1.19.4-1.78.6-11.44-11.37-16.2-28.28-28.08-39.18-.61-.56-1.57-1.12-2.2-.58"/>
          <path class="cls-11" d="m171.77,35.82c1.46-.13,2.84.98,3.86,1.89,1.14,1.01,2.14,2.18,3.13,3.33,2.23,2.59,4.3,5.31,6.29,8.09,3.98,5.55,7.65,11.32,11.62,16.87,2.19,3.06,4.48,6.05,6.95,8.9l.13-.51c-.59.2-1.19.4-1.78.6l.3.08c-4.84-4.83-8.49-10.64-11.94-16.49s-6.7-11.73-10.91-17.01c-1.16-1.46-2.39-2.87-3.7-4.19-.89-.9-2.65-3.14-4.11-2.11-.32.23-.01.76.31.53.82-.58,1.78.48,2.33,1,.59.55,1.16,1.12,1.71,1.71,1.13,1.19,2.19,2.44,3.21,3.72,2.02,2.57,3.83,5.3,5.54,8.08,3.43,5.57,6.51,11.36,10.22,16.76,2.06,3,4.33,5.87,6.91,8.44.07.07.2.11.3.08.59-.2,1.19-.4,1.78-.6.23-.08.29-.33.13-.51-9.15-10.55-15.65-23.07-24.72-33.69-1.16-1.36-2.32-2.74-3.71-3.87-1.06-.87-2.41-1.82-3.86-1.69-.39.03-.39.65,0,.61h0Z"/>
        </g>
        <g>
          <path class="cls-11" d="m82.34,28.67c3.55-.13,8.41.37,11.94.77,2.28-7.71,9.44-13.74,17.43-14.67,2.88-.34,6.08-.16,8.3-2.02.94-.79,1.6-1.87,2.09-3,.71-1.62,1.11-3.43.82-5.17s-1.37-3.42-2.99-4.13c-.24,4.25-1.89,8.85-5.68,10.76-2.4,1.21-5.2,1.13-7.88,1.38-10,.94-19.34,7.19-24.02,16.08"/>
          <path class="cls-11" d="m82.34,28.98c3.98-.14,7.98.33,11.94.77.13.01.26-.1.29-.22,1.77-5.89,6.35-10.77,12.02-13.11,1.38-.57,2.83-.99,4.3-1.23,1.56-.26,3.15-.28,4.72-.49s3-.56,4.24-1.46c1.3-.94,2.12-2.35,2.7-3.82,1.26-3.19,1.05-7.6-2.48-9.23-.21-.1-.44.02-.46.26-.19,3.14-1.08,6.51-3.31,8.85-2.72,2.85-6.6,2.65-10.22,3.02-6.38.66-12.47,3.45-17.27,7.69-2.73,2.41-5.02,5.3-6.73,8.51-.18.34.34.65.52.31,3.14-5.92,8.3-10.64,14.39-13.41,3.09-1.4,6.42-2.28,9.8-2.56s7.11-.33,9.76-2.95c2.48-2.45,3.47-6.07,3.67-9.46l-.46.26c3.51,1.63,3.36,6.05,1.98,9.07-.71,1.56-1.74,2.88-3.34,3.59-1.49.66-3.16.78-4.76.91-2.84.23-5.52.73-8.12,1.93s-4.92,2.91-6.85,4.99c-2.16,2.33-3.79,5.11-4.7,8.15l.29-.22c-3.95-.44-7.95-.9-11.94-.77-.39.01-.39.62,0,.61h0Z"/>
        </g>
        <path class="cls-10" d="m154.89,45.37c-.93-.99-.26-2.46.43-3.59,1.86-3.02,3.73-6.04,5.59-9.05.65.48,1.23,1.03,1.74,1.62-3.63,4.28-5.76,7.26-7.7,10.64"/>
      </g>
    </g>
  </g>
</svg>