<?xml version="1.0" encoding="UTF-8"?>
<svg id="_レイヤー_2" data-name="レイヤー 2" xmlns="http://www.w3.org/2000/svg" viewBox="0 0 281.01 169.2">
  <defs>
    <style>
      .cls-1 {
        fill: #0085a5;
      }

      .cls-1, .cls-2, .cls-3, .cls-4, .cls-5 {
        stroke-width: 0px;
      }

      .cls-6 {
        stroke-width: .12px;
      }

      .cls-6, .cls-7, .cls-8, .cls-9, .cls-10, .cls-11, .cls-12, .cls-13, .cls-14, .cls-15 {
        stroke-miterlimit: 10;
      }

      .cls-6, .cls-7, .cls-9, .cls-12 {
        fill: #3e3a39;
        stroke: #3e3a39;
      }

      .cls-2 {
        fill: #231815;
      }

      .cls-7 {
        stroke-width: .13px;
      }

      .cls-8 {
        fill: #f5b081;
        stroke: #f5b081;
        stroke-width: .33px;
      }

      .cls-9 {
        stroke-width: .16px;
      }

      .cls-10 {
        stroke-width: .3px;
      }

      .cls-10, .cls-11, .cls-4, .cls-14, .cls-15 {
        fill: #fbc93e;
      }

      .cls-10, .cls-11, .cls-14, .cls-15 {
        stroke: #fbc93e;
      }

      .cls-11 {
        stroke-width: .3px;
      }

      .cls-12 {
        stroke-width: .13px;
      }

      .cls-3 {
        fill: #fcf3c8;
      }

      .cls-13 {
        stroke: #00395d;
        stroke-width: .27px;
      }

      .cls-13, .cls-16 {
        fill: none;
      }

      .cls-14 {
        stroke-width: .33px;
      }

      .cls-15 {
        stroke-width: .32px;
      }

      .cls-16 {
        stroke: #231815;
        stroke-width: .27px;
      }

      .cls-5 {
        fill: #00395d;
      }
    </style>
  </defs>
  <g id="_レイヤー_5" data-name="レイヤー 5">
    <g>
      <g>
        <rect class="cls-3" x="1.18" width="279.84" height="169.13"/>
        <ellipse class="cls-1" cx="90.2" cy="84.57" rx="42.96" ry="42.74"/>
        <path class="cls-8" d="m168.43,77.31c-1.07.51-4.1,1.41-6.17,1.07-2.06-.34-4.92-2.14-4.92-2.14l-.6.52c1.46,1.89,4.51,2.88,5.67,2.99s3.76,0,5.74-.75,3.98-2.97,3.98-2.97l-.15-.79s-2.47,1.56-3.55,2.07Z"/>
        <path class="cls-8" d="m158.95,70.73l-.73-.47s-3.63,2.89-5.14,6.35l.47.9s4.49-6.46,5.39-6.78Z"/>
        <path class="cls-14" d="m100,89.79c3.55-5.34,7.15-7.63,10.79-6.86,2.57.54,4.36,2.26,5.36,5.15.92,2.68.99,5.88.19,9.62l-2.31,10.39-1.27,5.97c-1.2,5.61-1.73,8.87-1.58,9.77.13.9,1.04,1.69,2.75,2.37.32.17.42.56.29,1.17-.14.68-.39.98-.73.91-2.24-.6-4.07-1.05-5.48-1.35-1.49-.31-3.46-.67-5.9-1.05-.34-.07-.44-.45-.3-1.13.13-.62.38-.94.74-.96,1.64.18,2.76-.17,3.37-1.08.52-.76,1.38-3.95,2.58-9.56l3.09-14.48c.47-2.22.64-4.07.5-5.55-.3-3.45-1.63-5.42-4-5.92s-4.68.87-7.06,4.07c-1.26,1.7-2.21,4.05-2.85,7.04l-2.59,12.12c-1.23,5.74-1.78,8.99-1.66,9.76.11.6.35,1.06.73,1.36.38.27,1.12.62,2.23,1.05.29.16.36.54.23,1.16-.14.68-.37.99-.68.92-2.32-.62-4.15-1.07-5.48-1.35-1.56-.33-3.53-.68-5.9-1.05-.31-.06-.39-.44-.24-1.11.13-.62.36-.94.69-.97,1.65.12,2.77-.24,3.37-1.08.53-.79,1.39-3.98,2.58-9.56l2.83-13.23c.84-3.95,1.24-6.54,1.18-7.78-.1-1.41-.51-2.19-1.23-2.34l-2.07-.24c-.36-.08-.44-.59-.24-1.55.12-.56.45-.86,1-.9,2.6-.32,5.39-1.07,8.37-2.24.42.09.57.41.45.97-.8,3.38-1.38,5.9-1.73,7.56Z"/>
        <path class="cls-6" d="m99.66,45.14c1.19-.47,2.15-1.07,2.92-1.73-.51-.17-1.02-.33-1.54-.47-1.51,1.4-2.93,2.2-2.93,2.2h1.55Z"/>
        <path class="cls-9" d="m80.57,54.28c-.5,2.25-1.17,6.08-2.03,11.49l-.08.31c-.1.41-.57.52-1.4.31-.46-.11-.71-.43-.74-.95-.5-7.02-3.25-11.15-8.23-12.38-2.37-.58-4.39-.26-6.07.97-1.47,1.06-2.47,2.66-3,4.79-.44,1.75-.24,3.34.58,4.74.86,1.53,2.68,3.4,5.46,5.62l3.02,2.44c3.81,3.06,6.19,6.02,7.14,8.88.79,2.31.81,5.02.04,8.11-1.16,4.68-3.59,8-7.28,9.98-3.38,1.79-7.35,2.13-11.91,1.01-3.91-.96-7.66-2.82-11.25-5.57,0-2.66.19-6.21.55-10.65l.11-.85c.15-.58.6-.78,1.37-.59.49.12.78.41.86.87.48,3.84,1.72,7.05,3.72,9.62,1.69,2.24,3.69,3.65,6,4.22,2.71.67,5.07.23,7.09-1.32,1.76-1.32,2.95-3.21,3.57-5.69.55-2.2.38-4.2-.52-5.99-.88-1.71-2.53-3.56-4.94-5.54l-2.92-2.42c-3.85-3.17-6.22-6.04-7.11-8.6-.76-2.19-.75-4.87.04-8.04.92-3.71,3.05-6.4,6.37-8.07,2.91-1.47,6.11-1.78,9.58-.92,1.69.42,3.7,1.26,6.03,2.53,1.06.48,2.25.88,3.57,1.21.71.17,1.5.33,2.38.48Z"/>
        <path class="cls-15" d="m69.88,115.07c.95-.99,2.37-2.51,4.26-4.55l6.31-6.62c1.91-2.03,3.17-3.53,3.79-4.51.46-.75.64-1.34.54-1.79-.11-.42-.48-.87-1.13-1.35-.18-.17-.14-.47.13-.9s.51-.62.7-.51c1.22.86,2.21,1.53,2.97,1.99.56.35,1.5.87,2.83,1.58.21.13.17.42-.11.87s-.52.6-.75.52c-.94-.36-1.8-.31-2.59.15-.62.35-2.29,1.94-5.02,4.77l-9.19,9.41c-2.23,2.32-4.22,4.44-5.99,6.33-1.03.15-1.59.2-1.68.14-.1-.06-.11-.2-.02-.42.38-.94,1.49-3.82,3.34-8.66l2.75-7.56c1.22-3.16,1.89-4.89,2-5.21-1.15,1.19-2.39,2.47-3.7,3.83l-5.96,5.9c-2.58,2.62-4.59,4.7-6.02,6.23-1.04.15-1.61.19-1.7.13-.1-.06-.12-.21-.06-.44,1.33-3.28,2.46-6.16,3.38-8.64l4.57-12.35c1.36-3.62,2.09-5.87,2.17-6.77.09-.81-.26-1.53-1.06-2.16-.18-.17-.13-.49.17-.96.26-.41.49-.55.69-.43,1.47,1.01,2.57,1.75,3.32,2.21.84.52,2.01,1.19,3.53,2.01.18.11.13.4-.15.85s-.53.6-.78.49c-.78-.4-1.36-.54-1.74-.42-.29.09-.61.4-.94.93-.5.81-1.34,2.78-2.51,5.91l-3.43,9.14c-.47,1.26-1.15,2.98-2.05,5.17.34-.34.78-.79,1.32-1.35,1.11-1.11,2.02-2.03,2.74-2.75l5.32-5.4c1.9-1.9,3.19-3.19,3.89-3.88.78-1.99,1.16-3.28,1.14-3.86-.05-.66-.45-1.3-1.21-1.93-.18-.17-.14-.47.13-.9s.51-.62.7-.51c1.47,1.01,2.54,1.73,3.21,2.14.81.5,1.95,1.15,3.41,1.94.18.11.13.4-.15.85s-.52.6-.75.52c-.78-.4-1.36-.54-1.74-.42-.32.1-.64.41-.95.92-.45.73-1.28,2.7-2.48,5.93l-3.26,8.75c-.7,1.74-1.43,3.6-2.17,5.59Z"/>
        <path class="cls-7" d="m82.71,106.26c-.12-2.95-.27-4.85-.47-5.72-.22-.9-.55-1.31-.98-1.22l-1.17.39c-.16.04-.26-.26-.28-.88-.02-.44.1-.78.35-1.02,1.55-1.19,2.91-2.46,4.09-3.8.25-.05.38.14.4.58.09,4.51.21,8.57.35,12.19l.35,8.84c.17,4.35.33,6.77.47,7.25.18.59.82.86,1.93.81.17.03.26.27.28.71.02.62-.05.95-.21.99-1.27.18-2.3.35-3.08.52-.93.2-2,.47-3.22.83-.16.04-.26-.26-.28-.88-.02-.44.06-.71.22-.81.95-.43,1.51-.96,1.7-1.58.14-.54.13-2.99-.04-7.34l-.39-9.85Zm-.31-23.14c.47.16.86.75,1.18,1.79.27.91.38,1.81.32,2.7-.07,1.17-.33,2.09-.78,2.76-.39.55-.79.76-1.2.62-.49-.16-.89-.74-1.21-1.73-.28-.86-.39-1.8-.33-2.81s.33-1.92.8-2.61c.39-.62.8-.86,1.22-.72Z"/>
        <g>
          <path class="cls-1" d="m157.52,75.2l1.04-1.32c2.89,2.53,6.86,3.28,10.36,1.96-1.67,1.41-3.81,1.91-5.82,1.66s-3.91-1.2-5.62-2.44"/>
          <path class="cls-1" d="m126.09,38.31c.69-.88,1.58-3.11,4.06-2,2.66,1.18,10.42,18.25,17.44,25.06h-1.33c-2.77-2.86-4.82-5.9-6.95-9.26-2.04-3.2-3.7-5.85-6.28-8.64-.7-.76-2.7-2.42-3.57-2.97-.92-.58-1.66-.37-2.45.06-.35-.74-.64-1.13-1.36-1.57"/>
          <path class="cls-12" d="m104.09,44.43l-2.34.86c.92,2.72-4.43,7.51-4.43,7.51,5.9-1.73,6.77-8.38,6.77-8.38Z"/>
          <path class="cls-12" d="m116.68,56.91c.09-.47.32-1.17.87-1.73,0,0,1.43-.6,2.95-1.45-.29-.3-.59-.6-.89-.89-.72.3-1.44.52-2.06.57,0,0-.85,2.12-.87,3.5Z"/>
          <path class="cls-12" d="m129.55,67.56c-.29-.7-.59-1.4-.91-2.08l-2.59,2.15c1.19-.12,2.37-.13,3.5-.07Z"/>
          <path class="cls-12" d="m127.43,95.36s-1.85,1.15-5.09-7.6c-2.08-8.47-2.08-14.74-2.08-14.74,0,0-7.41,8.77-9.95,1.04,0,0-1.85-4.2-.69-12.41,0,0-11.75,2.52-17.13-5.75-3.09-4.75-3.1-9.6-1.57-13.59-.54-.02-1.08-.03-1.63-.03-1.95,0-3.86.13-5.74.38-.66,1.31-1.24,2.76-1.71,4.34-4.86,16.35,11.34,24.87,24.54,20.72,0,0-3.93,8.89-2.08,13.66,1.85,4.76,7.87,5.27,7.87,5.27,0,0-1.19,20.12,13.5,22.51,3.28-4.99,5.56-10.7,6.54-16.84-1.55,1.7-3.17,2.87-4.77,3.04Z"/>
          <path class="cls-10" d="m168.43,77.31c-1.07.51-4.1,1.41-6.17,1.07-2.06-.34-4.92-2.14-4.92-2.14l-.6.52c1.46,1.89,4.51,2.88,5.67,2.99s3.76,0,5.74-.75,3.98-2.97,3.98-2.97l-.15-.79s-2.47,1.56-3.55,2.07Z"/>
          <path class="cls-11" d="m142.86,74.27s-3.67,10.95-8.37,16.6c-.69,6.18-2.71,11.98-5.76,17.12,2.46.29,5.33.07,8.68-.84,6.06-2.28,9.99-6.16,12.01-10.9,1.47-3.45,2.57-6.44,3.44-10.72,0,0,4.24-8.8-10-11.26Z"/>
          <path class="cls-10" d="m106.68,34.57l-1.09-.46c.9,3.26-1.14,6-3.02,7.73.47.13.93.28,1.39.43,4.26-3.87,3.12-8.27,2.71-7.69Z"/>
          <path class="cls-10" d="m108.72,41.26c2.9-.85,2.57-2.02,2.57-2.02h-.43c-.22,1.33-1.74,1.9-2.14,2.02Z"/>
          <path class="cls-10" d="m119.78,39.65s.09,2.91,0,3.51l.17.43.88-2.48-.73-2.18s-3.51.29-4.02.29v.43s1.72.02,2.38-.04,1.32.04,1.32.04Z"/>
          <path class="cls-10" d="m121.66,47.68l3.41-5.38s-1.82-2.74-1.97-2.55-2.11,3.19-2.37,5.39l.92,2.54Z"/>
          <polygon class="cls-11" points="121.67 50.66 122.35 50.81 121.99 48.27 121.01 48.13 121.67 50.66"/>
          <path class="cls-11" d="m140.23,69.41c2.86-2.76,1.41-4.94,1.41-4.94-3.68-4.74-7.57-2.31-7.57-2.31l-3.92,3.26c.32.69.63,1.38.91,2.08,5.02.26,9.17,1.91,9.17,1.91Z"/>
          <path class="cls-11" d="m131.18,34.17c2.7,1.39,10.62,10.71,10.83,11.79l-4.22-6.35c.51.18-3.81-4.78-6.08-6.3-2.55-1.7-7.79,2.05-7.39,3v1.1c.05-.84,4.35-4.53,6.87-3.24Z"/>
          <path class="cls-11" d="m147.14,50.21c.61,1.3,4.55,9.46,4.55,9.46l-1.34-3.59-2.69-6.88c-.35.37-3.21.66-3.21.66,0,0-1.65.7-1.47.9.69.78,4.16-.56,4.16-.56Z"/>
          <path class="cls-11" d="m147.58,66.63l1.04,1.38s-.09-3.77,5.29-4.13c0,0,2.6.26,3.56,2.07v-.61s-1.71-2.37-4.34-2.4c-2.63-.02-5.4,2.48-5.55,3.69Z"/>
          <path class="cls-10" d="m158.95,70.73l-.73-.47s-3.63,2.89-5.14,6.35l.47.9s4.49-6.46,5.39-6.78Z"/>
          <path class="cls-10" d="m163.72,66.67c4.22-4.54-2.51-14.6-2.51-14.6h-.63c1.2.71,4.84,10.5,3.42,12.68-1.42,2.19-3.65,2.46-3.65,2.46l-.57.82c3.42-.27,3.93-1.37,3.93-1.37Z"/>
          <path class="cls-10" d="m169.42,52.45c3.31-.71,8.55-4.26,10.09-7.11v-1.22s-4.33,4.24-7.07,5.6c-2.73,1.36-5.26,2.34-9.24,1.09v1.01s2.91,1.34,6.22.63Z"/>
          <path class="cls-10" d="m178.63,50.42c.18,3.33-.31,8.51-1.17,13.34-.86,4.83-3.59,10.05-3.59,10.05l.33.4s2.61-3.93,4.25-9.87c1.63-5.94,1.08-14.73,1.08-14.73,0,0-.9.62-.89.81Z"/>
          <g>
            <path class="cls-4" d="m130.15,43.04c.91-.11,2.09.96,2.79,1.73,4.96,5.42,8.32,12.12,13.16,17.65-.3.1-.59.2-.89.3-5.69-5.62-8.05-13.99-13.96-19.38-.31-.28-.78-.56-1.1-.29"/>
            <path class="cls-4" d="m130.15,43.19c.96-.05,1.83.8,2.46,1.45.69.71,1.32,1.47,1.94,2.24,1.4,1.73,2.69,3.55,3.95,5.38,2.4,3.49,4.7,7.06,7.49,10.26l.07-.25c-.19.06-.47.22-.67.22-.27,0-.38-.19-.55-.37-.31-.33-.62-.67-.91-1.01-.6-.7-1.17-1.44-1.7-2.19-1.02-1.43-1.94-2.94-2.84-4.45-1.75-2.95-3.42-5.96-5.59-8.63-.61-.75-1.26-1.47-1.95-2.15-.45-.44-1.09-1.17-1.77-.78-.17.1-.02.36.15.26.58-.33,1.41.72,1.75,1.07s.71.75,1.05,1.14c.67.77,1.29,1.58,1.88,2.41,1.18,1.68,2.23,3.44,3.27,5.21,2.03,3.45,4.06,6.96,6.92,9.81.04.04.1.06.15.04.3-.1.59-.2.89-.3.11-.04.14-.17.07-.25-3.01-3.46-5.46-7.35-8.07-11.11-1.24-1.79-2.53-3.55-3.93-5.22-.93-1.11-2.39-3.19-4.06-3.1-.19.01-.2.31,0,.3h0Z"/>
          </g>
          <g>
            <path class="cls-4" d="m85.68,39.66c1.76-.07,4.18.18,5.94.38,1.14-3.82,4.69-6.8,8.67-7.26,1.43-.17,3.02-.08,4.13-1,.47-.39.79-.93,1.04-1.48.35-.8.55-1.7.41-2.56s-.68-1.69-1.49-2.04c-.12,2.1-.94,4.38-2.83,5.33-1.19.6-2.59.56-3.92.68-4.97.46-9.62,3.56-11.94,7.96"/>
            <path class="cls-4" d="m85.68,39.81c1.98-.06,3.97.16,5.94.38.07,0,.13-.05.14-.11.95-3.09,3.43-5.61,6.48-6.67,1.52-.53,3.09-.43,4.64-.77s2.49-1.43,2.95-2.92.18-3.39-1.38-4.15c-.11-.05-.22.01-.23.13-.11,1.62-.58,3.38-1.8,4.53-1.46,1.37-3.51,1.15-5.35,1.39-3.04.4-5.92,1.76-8.21,3.79-1.34,1.19-2.46,2.6-3.3,4.17-.09.17.17.32.26.15,1.64-3.05,4.34-5.46,7.54-6.8,1.64-.69,3.35-1.02,5.12-1.14,1.59-.11,3.19-.31,4.34-1.54s1.6-2.93,1.71-4.56l-.23.13c2.21,1.07,1.65,4.49.01,5.85-.85.7-2.02.78-3.07.87-.84.07-1.66.16-2.48.39-3.17.89-5.88,3.32-7.06,6.4-.06.17-.1.47-.26.54s-.58-.06-.75-.08c-.54-.06-1.08-.11-1.62-.15-1.13-.09-2.26-.16-3.39-.12-.19,0-.19.31,0,.3h0Z"/>
          </g>
          <path class="cls-1" d="m121.76,47.92c-.46-.49-.13-1.22.21-1.77.93-1.49,1.85-2.99,2.78-4.48.32.24.61.51.86.8-1.8,2.12-2.86,3.59-3.83,5.27"/>
        </g>
        <path class="cls-1" d="m83.88,72.67l.42-.42c.26-.25.45-.54.56-.87.17-.32.25-.67.23-1.04.01-.37-.06-.72-.23-1.04-.11-.34-.3-.63-.56-.87l-.55-.42c-.42-.25-.88-.37-1.37-.37l-.72.1c-.46.13-.86.36-1.2.7l-.42.42c-.26.25-.45.54-.56.87-.17.32-.25.67-.23,1.04-.01.37.06.72.23,1.04.11.34.3.63.56.87l.55.42c.42.25.88.37,1.37.37l.72-.1c.46-.13.86-.36,1.2-.7h0Z"/>
        <g>
          <line class="cls-16" x1="148.44" y1="125.95" x2="243.1" y2="125.95"/>
          <line class="cls-16" x1="148.44" y1="126.69" x2="243.1" y2="126.69"/>
          <line class="cls-16" x1="148.44" y1="127.43" x2="243.1" y2="127.43"/>
          <line class="cls-16" x1="148.44" y1="128.18" x2="243.1" y2="128.18"/>
          <line class="cls-16" x1="148.44" y1="128.92" x2="243.1" y2="128.92"/>
        </g>
        <g>
          <path class="cls-2" d="m165.02,120.4v.86s-.02.06-.06.06h-.27s-.06-.02-.06-.06l.02-2v-1.11l-.02-1.46s.02-.06.06-.06l.64.02h.44l.63-.02s.06.02.06.06l-.02,1.22v1.12l.02,1.88s-.02.06-.06.06h-.26s-.06-.02-.06-.06v-.51h-1.06Zm0-.36h1.06v-3.03h-1.06v3.03Zm4.41,1.39c.29.52.71.94,1.25,1.25.43.25.97.45,1.63.61-.09.05-.17.13-.22.24-.04.08-.07.12-.1.12-.01,0-.05-.01-.11-.03-1.3-.41-2.21-1.09-2.72-2.05-.2.57-.55,1.03-1.06,1.37-.4.27-.94.5-1.62.68-.05.01-.09.02-.1.02-.03,0-.06-.04-.1-.12-.05-.1-.11-.18-.19-.24,1.54-.29,2.45-.91,2.74-1.86h-.89l-1.23.02s-.06-.02-.06-.06v-.26s.02-.06.06-.06l1.23.02h.96c.03-.19.04-.37.04-.53,0-.08,0-.17-.01-.26.13.01.25.04.37.06.09.02.13.05.13.09,0,.02,0,.05-.03.09-.02.04-.03.07-.04.09-.01.03-.02.09-.04.18-.02.12-.04.21-.05.28h1.48l1.24-.02s.06.02.06.06v.26s-.02.06-.06.06l-1.24-.02h-1.33Zm-1.29-4.57h.23l.77-.02s.06.02.06.06v.24s-.02.06-.06.06l-.77-.02h-.22v.84h.13l.7-.02s.06.02.06.06v.23s-.02.06-.06.06l-.7-.02h-.12v.87c.37-.11.7-.24,1-.37-.02.07-.03.14-.03.21,0,.08,0,.12-.02.14-.01.01-.05.03-.12.06-.57.22-1.13.42-1.69.59-.15.04-.25.08-.3.12-.05.04-.09.06-.11.06-.04,0-.07-.02-.09-.07-.05-.1-.09-.23-.13-.38.25-.03.51-.08.8-.16l.36-.11v-.97h-.15l-.69.02s-.06-.02-.06-.06v-.23s.02-.06.06-.06l.69.02h.13v-.84h-.18l-.77.02s-.06-.02-.06-.06v-.24s.02-.06.06-.06l.77.02h.18v-.16c0-.35-.03-.64-.09-.85.13,0,.26.02.41.05.06,0,.09.03.09.08,0,.02-.01.06-.03.13-.03.07-.04.26-.04.56v.19Zm2.08-.06l-.78.02s-.06-.02-.06-.06v-.25s.02-.06.06-.06l.81.02h.79l.82-.02s.07.02.07.06v.02c-.02.13-.03.26-.03.39-.02.58-.07,1.15-.14,1.71-.07.53-.13.89-.21,1.07-.1.27-.33.41-.69.41-.13,0-.26,0-.38-.02-.06,0-.1-.02-.11-.03-.01-.01-.02-.05-.03-.11,0-.1-.04-.2-.09-.29.22.04.39.06.5.06.25,0,.41-.08.46-.24.08-.21.16-.61.21-1.19.05-.48.07-.98.08-1.5h-.94c-.04.88-.19,1.56-.45,2.06-.29.56-.76,1.02-1.4,1.37-.05.03-.08.04-.1.04-.02,0-.06-.03-.11-.1-.05-.07-.12-.12-.2-.15.72-.32,1.23-.77,1.51-1.35.23-.46.35-1.09.38-1.88Z"/>
          <path class="cls-2" d="m176.53,117.72c.93,1.04,2.25,1.8,3.97,2.27-.09.08-.16.17-.21.25-.04.08-.07.12-.1.12-.02,0-.05,0-.1-.03-1.65-.52-2.92-1.3-3.8-2.35-.47.57-1.05,1.07-1.73,1.48-.53.32-1.16.63-1.91.91-.05.02-.08.03-.1.03-.02,0-.05-.03-.09-.1-.06-.1-.13-.17-.22-.22.86-.29,1.62-.65,2.29-1.08.58-.37,1.04-.77,1.37-1.18.12-.15.21-.29.24-.41.17.04.29.07.38.1.08.03.12.06.12.09,0,.03-.02.06-.05.08-.04.03-.06.04-.06.05Zm-1.54-1.06c0-.39-.02-.67-.05-.83.15,0,.3.02.43.05.06,0,.09.03.09.07s-.01.08-.03.12c-.04.06-.06.26-.06.6h1.99c0-.41-.02-.69-.06-.84.14,0,.29.02.44.04.05.01.08.04.08.07s-.01.08-.03.12c-.03.05-.04.25-.04.61h2.38s.06,0,.06.04v.3s-.02.06-.06.06l-1.19-.03h-1.19c0,.24,0,.42,0,.54v.13s-.01.06-.05.06h-.29s-.06-.02-.06-.06l.02-.66v-.02h-1.99v.02l.02.67s-.02.06-.06.06h-.29s-.05-.02-.05-.06v-.67s0-.02,0-.02h-1.18l-1.19.02s-.06-.02-.06-.06v-.29s.02-.05.06-.05h1.19s1.18,0,1.18,0Zm-1.91,6.44c.49-.29.92-.67,1.28-1.13.17-.21.27-.42.31-.62.17.06.3.12.4.17.04.03.06.06.06.09,0,.04-.03.07-.09.11-.05.05-.12.12-.18.22-.41.57-.85,1.02-1.33,1.35-.05.04-.09.06-.11.06-.03,0-.06-.03-.11-.08-.06-.07-.13-.13-.23-.17Zm3-2.69v-.2c0-.48-.02-.82-.06-1.02.2.01.35.02.46.04.06,0,.09.03.09.08,0,.03-.01.07-.03.12-.04.09-.05.34-.05.76v.23h1.3l1.24-.02s.06.02.06.06v.28s-.02.06-.06.06l-1.24-.02h-1.3v1.76l.02,1.1s-.02.06-.06.06h-.32s-.06-.02-.06-.06l.02-1.1v-1.76h-1.14l-1.24.02s-.06-.02-.06-.06v-.28s.02-.06.06-.06l1.24.02h1.14Zm3.48,2.51c-.1.08-.17.15-.21.21-.05.07-.08.1-.1.1-.02,0-.06-.02-.11-.05-.57-.42-1.09-.94-1.54-1.56-.01-.02-.02-.03-.02-.04,0-.02.03-.04.09-.08l.12-.08s.06-.03.08-.03.03.01.05.03c.54.67,1.09,1.17,1.65,1.5Z"/>
          <path class="cls-4" d="m191.49,110.59c.02.72.08,1.67.2,2.86v.05c0,.1-.1.14-.3.14-.07,0-.12-.04-.15-.13-.3-.92-.74-1.62-1.33-2.07-.51-.4-1.08-.6-1.73-.6-.75,0-1.35.24-1.78.71-.37.41-.55.93-.55,1.55,0,1.05.68,1.89,2.04,2.52l.93.43c1.32.6,2.23,1.25,2.75,1.95.44.58.66,1.29.66,2.1,0,1.29-.44,2.28-1.32,2.97-.78.62-1.85.92-3.19.92-.97,0-2.05-.22-3.24-.65-.24-.83-.43-1.75-.58-2.78l-.02-.14c0-.13.09-.19.28-.19.09,0,.15.04.18.11.37,1.01.92,1.79,1.63,2.34.6.48,1.25.71,1.96.71.89,0,1.6-.28,2.12-.83.44-.47.66-1.06.66-1.77s-.22-1.35-.67-1.85c-.4-.45-1.07-.91-2-1.38l-.93-.46c-1.07-.54-1.81-1.1-2.22-1.7-.36-.52-.54-1.16-.54-1.89,0-1.01.4-1.83,1.2-2.45.71-.54,1.58-.81,2.63-.81.53,0,1.04.08,1.52.23.35.11.74.16,1.17.16.22,0,.43-.02.62-.05Z"/>
          <path class="cls-4" d="m201.22,122.07c.13-.35.31-.88.54-1.59l.83-2.34c.25-.71.37-1.22.37-1.52,0-.23-.07-.39-.22-.47-.14-.08-.39-.13-.75-.14-.11-.01-.16-.08-.16-.22s.05-.21.14-.21c.67.02,1.2.04,1.6.04.3,0,.78-.01,1.45-.04.11,0,.16.07.16.21s-.05.21-.16.22c-.44.05-.76.18-.95.39-.15.16-.41.75-.78,1.75l-1.27,3.35c-.3.82-.56,1.56-.78,2.23-.36.17-.56.26-.61.26-.05,0-.09-.03-.11-.09-.08-.26-.34-1.05-.78-2.38l-.74-2.06c-.28-.87-.44-1.35-.47-1.43-.16.42-.32.88-.5,1.36l-.87,2.13c-.36.94-.63,1.67-.81,2.21-.36.17-.57.26-.62.26-.05,0-.1-.03-.13-.09-.27-.91-.53-1.71-.76-2.38l-1.19-3.37c-.34-.99-.6-1.59-.78-1.8-.16-.19-.46-.3-.91-.33-.11-.01-.16-.09-.16-.24,0-.13.05-.19.16-.19.8.02,1.39.04,1.78.04.44,0,1.05-.01,1.82-.04.1,0,.14.07.14.21s-.06.21-.18.22c-.39.02-.65.07-.76.14-.09.06-.14.17-.14.33,0,.25.15.8.44,1.66l.86,2.5c.12.34.27.82.44,1.43.05-.12.11-.28.18-.48.16-.4.29-.73.39-.99l.74-1.93c.27-.68.46-1.15.56-1.39-.17-.55-.33-.89-.48-1.01-.18-.14-.48-.23-.92-.26-.11-.01-.16-.08-.16-.22s.05-.21.14-.21c.8.02,1.37.04,1.73.04.43,0,1.01-.01,1.76-.04.1,0,.14.07.14.21s-.05.21-.16.22c-.39.02-.65.07-.76.14-.1.07-.14.18-.14.33,0,.22.15.78.46,1.66l.83,2.39c.15.48.31,1,.5,1.54Z"/>
          <path class="cls-4" d="m206.96,118.45c0-.77-.05-1.28-.14-1.51-.11-.25-.29-.37-.54-.37l-.69.04c-.1,0-.15-.08-.15-.25,0-.11.08-.2.23-.24.93-.22,1.75-.48,2.46-.76.14,0,.22.06.22.17-.05,1.18-.07,2.24-.07,3.19v2.32c0,1.14.04,1.78.11,1.91.09.16.46.27,1.1.32.1.02.15.08.15.2,0,.16-.05.24-.15.24-.74-.02-1.34-.04-1.8-.04-.54,0-1.17.01-1.89.04-.1,0-.14-.08-.14-.24,0-.12.05-.18.14-.2.56-.06.9-.17,1.02-.32.1-.13.14-.77.14-1.91v-2.58Zm.55-8.18c.28,0,.53.12.74.36.19.21.28.43.28.67,0,.31-.12.57-.35.78-.21.18-.43.26-.67.26-.29,0-.54-.11-.76-.34-.19-.2-.29-.43-.29-.7s.12-.53.37-.74c.21-.19.43-.29.68-.29Z"/>
          <path class="cls-4" d="m212.52,117.03c.73-1.14,1.67-1.71,2.83-1.71.81,0,1.47.25,1.96.75.45.46.68,1.06.68,1.79l-.03,2.04v1.17c0,1.1.05,1.73.15,1.89.1.16.43.27.99.33.11.02.16.09.16.21,0,.13-.05.2-.16.2-.72-.02-1.3-.04-1.75-.04-.47,0-1.09.01-1.86.04-.11,0-.16-.07-.16-.2,0-.12.05-.19.16-.21.51-.03.82-.14.95-.33.11-.16.16-.79.16-1.89v-2.83c0-.43-.07-.79-.21-1.06-.31-.63-.84-.95-1.59-.95s-1.36.35-1.88,1.04c-.27.37-.41.84-.41,1.43v2.37c0,1.12.04,1.75.13,1.89.07.11.17.18.31.23.13.04.38.07.74.11.1.02.15.09.15.21,0,.13-.05.2-.15.2-.74-.02-1.32-.04-1.75-.04-.5,0-1.11.01-1.86.04-.1,0-.15-.07-.15-.2,0-.12.05-.19.15-.21.51-.04.82-.15.95-.33.11-.17.16-.8.16-1.89v-2.59c0-.77-.05-1.27-.14-1.5-.12-.26-.3-.39-.53-.39l-.64.04c-.12,0-.17-.09-.17-.28,0-.11.08-.18.24-.21.77-.16,1.56-.41,2.39-.75.13,0,.2.05.2.16-.02.66-.04,1.16-.04,1.48Z"/>
          <path class="cls-4" d="m220.66,123.61c-.47-.14-.79-.32-.96-.53-.14-.18-.21-.42-.21-.72,0-.66.57-1.24,1.7-1.75-1.36-.45-2.04-1.29-2.04-2.52,0-.85.36-1.55,1.09-2.1.6-.46,1.31-.69,2.12-.69.55,0,1.11.14,1.69.41,1.03,0,1.98-.04,2.87-.13.07,0,.11.04.11.11l-.22.56c-.04.08-.11.13-.19.13-.42-.04-1.03-.05-1.84-.05.48.46.72,1.01.72,1.65,0,.9-.32,1.61-.96,2.12-.56.46-1.29.69-2.19.69-.16,0-.33-.02-.52-.05-.73.38-1.09.8-1.09,1.26,0,.38.41.57,1.24.57l1.87-.04c2.08,0,3.11.78,3.11,2.35,0,1.02-.42,1.82-1.27,2.4-.79.54-1.87.81-3.24.81-1.14,0-2.06-.26-2.76-.77-.59-.43-.89-.94-.89-1.55,0-.96.61-1.68,1.84-2.16Zm.64.17c-.12.06-.27.15-.44.27-.43.37-.64.85-.64,1.43,0,.68.27,1.21.8,1.58.46.33,1.06.5,1.8.5.94,0,1.69-.26,2.25-.79.46-.43.7-.94.7-1.55,0-.51-.19-.88-.56-1.1-.33-.2-.85-.3-1.56-.3h-1.12c-.42,0-.82-.02-1.21-.05Zm1.06-8c-.57,0-1.01.22-1.33.66-.28.4-.43.92-.43,1.57,0,.77.19,1.36.57,1.77.31.34.72.52,1.2.52.54,0,.98-.23,1.3-.68.3-.42.45-.95.45-1.61,0-.73-.2-1.3-.59-1.71-.32-.34-.71-.52-1.19-.52Z"/>
        </g>
      </g>
      <g>
        <g>
          <rect class="cls-13" x=".17" y="139.72" width="8.01" height="29.34"/>
          <rect class="cls-13" x="8.19" y="139.72" width="8.01" height="29.34"/>
          <rect class="cls-13" x="16.2" y="139.72" width="8.01" height="29.34"/>
          <rect class="cls-13" x="24.21" y="139.72" width="8.01" height="29.34"/>
          <rect class="cls-13" x="32.22" y="139.72" width="8.01" height="29.34"/>
          <rect class="cls-13" x="40.24" y="139.72" width="8.01" height="29.34"/>
          <rect class="cls-13" x="48.25" y="139.72" width="8.01" height="29.34"/>
          <rect class="cls-5" x="6.01" y="139.72" width="4.35" height="18"/>
          <rect class="cls-5" x="14.03" y="139.72" width="4.35" height="18"/>
          <rect class="cls-5" x="30.05" y="139.72" width="4.35" height="18"/>
          <rect class="cls-5" x="38.06" y="139.72" width="4.35" height="18"/>
          <rect class="cls-5" x="46.07" y="139.72" width="4.35" height="18"/>
        </g>
        <g>
          <rect class="cls-13" x="56.26" y="139.72" width="8.01" height="29.34"/>
          <rect class="cls-13" x="64.27" y="139.72" width="8.01" height="29.34"/>
          <rect class="cls-13" x="72.28" y="139.72" width="8.01" height="29.34"/>
          <rect class="cls-13" x="80.3" y="139.72" width="8.01" height="29.34"/>
          <rect class="cls-13" x="88.31" y="139.72" width="8.01" height="29.34"/>
          <rect class="cls-13" x="96.32" y="139.72" width="8.01" height="29.34"/>
          <rect class="cls-13" x="104.33" y="139.72" width="8.01" height="29.34"/>
          <rect class="cls-5" x="62.1" y="139.72" width="4.35" height="18"/>
          <rect class="cls-5" x="70.11" y="139.72" width="4.35" height="18"/>
          <rect class="cls-5" x="86.14" y="139.72" width="4.35" height="18"/>
          <rect class="cls-5" x="94.15" y="139.72" width="4.35" height="18"/>
          <rect class="cls-5" x="102.16" y="139.72" width="4.35" height="18"/>
        </g>
        <g>
          <rect class="cls-13" x="112.35" y="139.72" width="8.01" height="29.34"/>
          <rect class="cls-13" x="120.36" y="139.72" width="8.01" height="29.34"/>
          <rect class="cls-13" x="128.37" y="139.72" width="8.01" height="29.34"/>
          <rect class="cls-13" x="136.38" y="139.72" width="8.01" height="29.34"/>
          <rect class="cls-13" x="144.4" y="139.72" width="8.01" height="29.34"/>
          <rect class="cls-13" x="152.41" y="139.72" width="8.01" height="29.34"/>
          <rect class="cls-13" x="160.42" y="139.72" width="8.01" height="29.34"/>
          <rect class="cls-5" x="118.19" y="139.72" width="4.35" height="18"/>
          <rect class="cls-5" x="126.2" y="139.72" width="4.35" height="18"/>
          <rect class="cls-5" x="142.22" y="139.72" width="4.35" height="18"/>
          <rect class="cls-5" x="150.23" y="139.72" width="4.35" height="18"/>
          <rect class="cls-5" x="158.25" y="139.72" width="4.35" height="18"/>
        </g>
        <g>
          <rect class="cls-13" x="168.43" y="139.72" width="8.01" height="29.34"/>
          <rect class="cls-13" x="176.44" y="139.72" width="8.01" height="29.34"/>
          <rect class="cls-13" x="184.46" y="139.72" width="8.01" height="29.34"/>
          <rect class="cls-13" x="192.47" y="139.72" width="8.01" height="29.34"/>
          <rect class="cls-13" x="200.48" y="139.72" width="8.01" height="29.34"/>
          <rect class="cls-13" x="208.49" y="139.72" width="8.01" height="29.34"/>
          <rect class="cls-13" x="216.51" y="139.72" width="8.01" height="29.34"/>
          <rect class="cls-5" x="174.27" y="139.72" width="4.35" height="18"/>
          <rect class="cls-5" x="182.28" y="139.72" width="4.35" height="18"/>
          <rect class="cls-5" x="198.31" y="139.72" width="4.35" height="18"/>
          <rect class="cls-5" x="206.32" y="139.72" width="4.35" height="18"/>
          <rect class="cls-5" x="214.33" y="139.72" width="4.35" height="18"/>
        </g>
        <g>
          <rect class="cls-13" x="224.52" y="139.72" width="8.01" height="29.34"/>
          <rect class="cls-13" x="232.53" y="139.72" width="8.01" height="29.34"/>
          <rect class="cls-13" x="240.54" y="139.72" width="8.01" height="29.34"/>
          <rect class="cls-13" x="248.56" y="139.72" width="8.01" height="29.34"/>
          <rect class="cls-13" x="256.57" y="139.72" width="8.01" height="29.34"/>
          <rect class="cls-13" x="264.58" y="139.72" width="8.01" height="29.34"/>
          <rect class="cls-13" x="272.59" y="139.72" width="8.01" height="29.34"/>
          <rect class="cls-5" x="230.36" y="139.72" width="4.35" height="18"/>
          <rect class="cls-5" x="238.37" y="139.72" width="4.35" height="18"/>
          <rect class="cls-5" x="254.39" y="139.72" width="4.35" height="18"/>
          <rect class="cls-5" x="262.41" y="139.72" width="4.35" height="18"/>
          <rect class="cls-5" x="270.42" y="139.72" width="4.35" height="18"/>
        </g>
      </g>
    </g>
  </g>
</svg>